<?xml version="1.0" standalone="no"?><svg xmlns:xlink="http://www.w3.org/1999/xlink" xmlns="http://www.w3.org/2000/svg" viewBox="0 0 1000 2250.0595379852343" preserveAspectRatio="xMaxYMax slice"><g transform="scale(4.763038818766373)"><rect x="0" y="0" width="209.95555555555555" height="472.4" fill="#000000"/><rect x="0" y="0" width="52.49" height="52.49" fill="#e4db3f"/><g transform="translate(0,0) scale(2.6245000000000003) rotate(0)"><path d="M10 0L20 10L10 20L0 10L10 0Z" fill="#df2023"/></g><rect x="52.49" y="0" width="52.49" height="52.49" fill="#df2023"/><g transform="translate(52.49,0) scale(2.6245000000000003) rotate(0)"><path d="M10 5L5 0L0 5L5 10L0 15L5 20L10 15L15 20L20 15L15 10L20 5L15 0L10 5Z" fill="#df20dc"/></g><rect x="104.98" y="0" width="52.49" height="52.49" fill="#df20dc"/><circle cx="131.225" cy="26.245" r="26.245" fill="#e4db3f"/><rect x="157.47" y="0" width="52.49" height="52.49" fill="#05ff1e"/><g transform="translate(157.47,0) scale(2.6245000000000003) rotate(0)"><path d="M10 5L5 0L0 5L5 10L0 15L5 20L10 15L15 20L20 15L15 10L20 5L15 0L10 5Z" fill="#df2023"/></g><rect x="0" y="52.49" width="52.49" height="52.49" fill="#df20dc"/><g transform="translate(0,52.49) scale(2.6245000000000003) rotate(0)"><path fill-rule="evenodd" clip-rule="evenodd" d="M10 20C15.5228 20 20 15.5228 20 10C20 4.47715 15.5228 0 10 0C4.47715 0 0 4.47715 0 10C0 15.5228 4.47715 20 10 20ZM10 17C13.866 17 17 13.866 17 10C17 6.13401 13.866 3 10 3C6.13401 3 3 6.13401 3 10C3 13.866 6.13401 17 10 17Z" fill="#df2023"/></g><rect x="52.49" y="52.49" width="52.49" height="52.49" fill="#df20dc"/><circle cx="78.735" cy="78.735" r="26.245" fill="#e4db3f"/><rect x="104.97777777777777" y="52.48888888888889" width="52.48888888888889" height="52.48888888888889" fill="#000000"/><rect x="104.98" y="52.49" width="26.24" height="26.24" fill="#df20dc"/><g transform="translate(104.98,52.49) scale(1.3119999999999998) rotate(0)"><path d="M10 0L20 10L10 20L0 10L10 0Z" fill="#05ff1e"/></g><rect x="131.22" y="52.49" width="26.24" height="26.24" fill="#df20dc"/><circle cx="144.34" cy="65.61" r="13.12" fill="#3633ff"/><rect x="104.98" y="78.73" width="26.24" height="26.24" fill="#3633ff"/><g transform="translate(104.98,78.73) scale(1.3119999999999998) rotate(0)"><path d="M10 5L5 0L0 5L5 10L0 15L5 20L10 15L15 20L20 15L15 10L20 5L15 0L10 5Z" fill="#e4db3f"/></g><rect x="131.22" y="78.73" width="26.24" height="26.24" fill="#3633ff"/><circle cx="144.34" cy="91.85000000000001" r="13.12" fill="#05ff1e"/><rect x="157.47" y="52.49" width="52.49" height="52.49" fill="#df20dc"/><circle cx="183.715" cy="78.735" r="26.245" fill="#3633ff"/><rect x="0" y="104.98" width="52.49" height="52.49" fill="#3633ff"/><g transform="translate(0,104.98) scale(2.6245000000000003) rotate(0)"><path d="M10 0L20 10L10 20L0 10L10 0Z" fill="#05ff1e"/></g><rect x="52.49" y="104.98" width="52.49" height="52.49" fill="#05ff1e"/><circle cx="78.735" cy="131.225" r="26.245" fill="#05ff1e"/><rect x="104.98" y="104.98" width="52.49" height="52.49" fill="#3633ff"/><g transform="translate(104.98,104.98) scale(2.6245000000000003) rotate(0)"><path d="M10 5L5 0L0 5L5 10L0 15L5 20L10 15L15 20L20 15L15 10L20 5L15 0L10 5Z" fill="#df2023"/></g><rect x="157.47" y="104.98" width="52.49" height="52.49" fill="#3633ff"/><g transform="translate(157.47,104.98) scale(2.6245000000000003) rotate(0)"><path d="M10 0L20 10L10 20L0 10L10 0Z" fill="#e4db3f"/></g><rect x="0" y="157.47" width="52.49" height="52.49" fill="#05ff1e"/><g transform="translate(0,157.47) scale(2.6245000000000003) rotate(0)"><path fill-rule="evenodd" clip-rule="evenodd" d="M10 20C15.5228 20 20 15.5228 20 10C20 4.47715 15.5228 0 10 0C4.47715 0 0 4.47715 0 10C0 15.5228 4.47715 20 10 20ZM10 17C13.866 17 17 13.866 17 10C17 6.13401 13.866 3 10 3C6.13401 3 3 6.13401 3 10C3 13.866 6.13401 17 10 17Z" fill="#df2023"/></g><rect x="52.49" y="157.47" width="52.49" height="52.49" fill="#3633ff"/><g transform="translate(52.49,157.47) scale(2.6245000000000003) rotate(0)"><path fill-rule="evenodd" clip-rule="evenodd" d="M10 20C15.5228 20 20 15.5228 20 10C20 4.47715 15.5228 0 10 0C4.47715 0 0 4.47715 0 10C0 15.5228 4.47715 20 10 20ZM10 17C13.866 17 17 13.866 17 10C17 6.13401 13.866 3 10 3C6.13401 3 3 6.13401 3 10C3 13.866 6.13401 17 10 17Z" fill="#df20dc"/></g><rect x="104.97777777777777" y="157.46666666666667" width="52.48888888888889" height="52.48888888888889" fill="#000000"/><rect x="104.98" y="157.47" width="26.24" height="26.24" fill="#df2023"/><g transform="translate(104.98,157.47) scale(1.3119999999999998) rotate(0)"><path d="M10 0L20 10L10 20L0 10L10 0Z" fill="#df20dc"/></g><rect x="131.22" y="157.47" width="26.24" height="26.24" fill="#e4db3f"/><g transform="translate(131.22,157.47) scale(1.3119999999999998) rotate(0)"><path d="M10 5L5 0L0 5L5 10L0 15L5 20L10 15L15 20L20 15L15 10L20 5L15 0L10 5Z" fill="#e4db3f"/></g><rect x="104.98" y="183.71" width="26.24" height="26.24" fill="#3633ff"/><g transform="translate(104.98,183.71) scale(1.3119999999999998) rotate(0)"><path d="M10 5L5 0L0 5L5 10L0 15L5 20L10 15L15 20L20 15L15 10L20 5L15 0L10 5Z" fill="#e4db3f"/></g><rect x="131.22" y="183.71" width="26.24" height="26.24" fill="#e4db3f"/><g transform="translate(131.22,183.71) scale(1.3119999999999998) rotate(0)"><path d="M10 5L5 0L0 5L5 10L0 15L5 20L10 15L15 20L20 15L15 10L20 5L15 0L10 5Z" fill="#df20dc"/></g><rect x="157.46666666666667" y="157.46666666666667" width="52.48888888888889" height="52.48888888888889" fill="#000000"/><rect x="157.47" y="157.47" width="26.24" height="26.24" fill="#df2023"/><g transform="translate(157.47,157.47) scale(1.3119999999999998) rotate(0)"><path d="M10 5L5 0L0 5L5 10L0 15L5 20L10 15L15 20L20 15L15 10L20 5L15 0L10 5Z" fill="#05ff1e"/></g><rect x="183.71" y="157.47" width="26.24" height="26.24" fill="#df20dc"/><g transform="translate(183.71,157.47) scale(1.3119999999999998) rotate(0)"><path d="M10 5L5 0L0 5L5 10L0 15L5 20L10 15L15 20L20 15L15 10L20 5L15 0L10 5Z" fill="#e4db3f"/></g><rect x="157.47" y="183.71" width="26.24" height="26.24" fill="#df20dc"/><circle cx="170.59" cy="196.83" r="13.12" fill="#3633ff"/><rect x="183.71" y="183.71" width="26.24" height="26.24" fill="#05ff1e"/><g transform="translate(183.71,183.71) scale(1.3119999999999998) rotate(0)"><path d="M10 0L20 10L10 20L0 10L10 0Z" fill="#e4db3f"/></g><rect x="0" y="209.95555555555555" width="52.48888888888889" height="52.48888888888889" fill="#000000"/><rect x="0" y="209.96" width="26.24" height="26.24" fill="#df2023"/><g transform="translate(0,209.96) scale(1.3119999999999998) rotate(0)"><path d="M10 5L5 0L0 5L5 10L0 15L5 20L10 15L15 20L20 15L15 10L20 5L15 0L10 5Z" fill="#e4db3f"/></g><rect x="26.24" y="209.96" width="26.24" height="26.24" fill="#df2023"/><g transform="translate(26.24,209.96) scale(1.3119999999999998) rotate(0)"><path d="M10 0L20 10L10 20L0 10L10 0Z" fill="#e4db3f"/></g><rect x="0" y="236.2" width="26.24" height="26.24" fill="#e4db3f"/><g transform="translate(0,236.2) scale(1.3119999999999998) rotate(0)"><path fill-rule="evenodd" clip-rule="evenodd" d="M10 20C15.5228 20 20 15.5228 20 10C20 4.47715 15.5228 0 10 0C4.47715 0 0 4.47715 0 10C0 15.5228 4.47715 20 10 20ZM10 17C13.866 17 17 13.866 17 10C17 6.13401 13.866 3 10 3C6.13401 3 3 6.13401 3 10C3 13.866 6.13401 17 10 17Z" fill="#df2023"/></g><rect x="26.24" y="236.2" width="26.24" height="26.24" fill="#df2023"/><g transform="translate(26.24,236.2) scale(1.3119999999999998) rotate(0)"><path d="M10 0L20 10L10 20L0 10L10 0Z" fill="#df2023"/></g><rect x="52.49" y="209.96" width="52.49" height="52.49" fill="#05ff1e"/><g transform="translate(52.49,209.96) scale(2.6245000000000003) rotate(0)"><path fill-rule="evenodd" clip-rule="evenodd" d="M10 20C15.5228 20 20 15.5228 20 10C20 4.47715 15.5228 0 10 0C4.47715 0 0 4.47715 0 10C0 15.5228 4.47715 20 10 20ZM10 17C13.866 17 17 13.866 17 10C17 6.13401 13.866 3 10 3C6.13401 3 3 6.13401 3 10C3 13.866 6.13401 17 10 17Z" fill="#e4db3f"/></g><rect x="104.97777777777777" y="209.95555555555555" width="52.48888888888889" height="52.48888888888889" fill="#000000"/><rect x="104.98" y="209.96" width="26.24" height="26.24" fill="#05ff1e"/><g transform="translate(104.98,209.96) scale(1.3119999999999998) rotate(0)"><path d="M10 5L5 0L0 5L5 10L0 15L5 20L10 15L15 20L20 15L15 10L20 5L15 0L10 5Z" fill="#df20dc"/></g><rect x="131.22" y="209.96" width="26.24" height="26.24" fill="#df2023"/><circle cx="144.34" cy="223.08" r="13.12" fill="#3633ff"/><rect x="104.98" y="236.2" width="26.24" height="26.24" fill="#05ff1e"/><g transform="translate(104.98,236.2) scale(1.3119999999999998) rotate(0)"><path d="M10 0L20 10L10 20L0 10L10 0Z" fill="#05ff1e"/></g><rect x="131.22" y="236.2" width="26.24" height="26.24" fill="#e4db3f"/><g transform="translate(131.22,236.2) scale(1.3119999999999998) rotate(0)"><path fill-rule="evenodd" clip-rule="evenodd" d="M10 20C15.5228 20 20 15.5228 20 10C20 4.47715 15.5228 0 10 0C4.47715 0 0 4.47715 0 10C0 15.5228 4.47715 20 10 20ZM10 17C13.866 17 17 13.866 17 10C17 6.13401 13.866 3 10 3C6.13401 3 3 6.13401 3 10C3 13.866 6.13401 17 10 17Z" fill="#df2023"/></g><rect x="157.47" y="209.96" width="52.49" height="52.49" fill="#df2023"/><g transform="translate(157.47,209.96) scale(2.6245000000000003) rotate(0)"><path d="M10 5L5 0L0 5L5 10L0 15L5 20L10 15L15 20L20 15L15 10L20 5L15 0L10 5Z" fill="#3633ff"/></g><rect x="0" y="262.44444444444446" width="52.48888888888889" height="52.48888888888889" fill="#000000"/><rect x="0" y="262.44" width="26.24" height="26.24" fill="#3633ff"/><g transform="translate(0,262.44) scale(1.3119999999999998) rotate(0)"><path d="M10 0L20 10L10 20L0 10L10 0Z" fill="#df2023"/></g><rect x="26.24" y="262.44" width="26.24" height="26.24" fill="#3633ff"/><g transform="translate(26.24,262.44) scale(1.3119999999999998) rotate(0)"><path d="M10 0L20 10L10 20L0 10L10 0Z" fill="#3633ff"/></g><rect x="0" y="288.69" width="26.24" height="26.24" fill="#df2023"/><g transform="translate(0,288.69) scale(1.3119999999999998) rotate(0)"><path fill-rule="evenodd" clip-rule="evenodd" d="M10 20C15.5228 20 20 15.5228 20 10C20 4.47715 15.5228 0 10 0C4.47715 0 0 4.47715 0 10C0 15.5228 4.47715 20 10 20ZM10 17C13.866 17 17 13.866 17 10C17 6.13401 13.866 3 10 3C6.13401 3 3 6.13401 3 10C3 13.866 6.13401 17 10 17Z" fill="#df2023"/></g><rect x="26.24" y="288.69" width="26.24" height="26.24" fill="#df2023"/><g transform="translate(26.24,288.69) scale(1.3119999999999998) rotate(0)"><path d="M10 5L5 0L0 5L5 10L0 15L5 20L10 15L15 20L20 15L15 10L20 5L15 0L10 5Z" fill="#e4db3f"/></g><rect x="52.49" y="262.44" width="52.49" height="52.49" fill="#df20dc"/><g transform="translate(52.49,262.44) scale(2.6245000000000003) rotate(0)"><path d="M10 0L20 10L10 20L0 10L10 0Z" fill="#05ff1e"/></g><rect x="104.97777777777777" y="262.44444444444446" width="52.48888888888889" height="52.48888888888889" fill="#000000"/><rect x="104.98" y="262.44" width="26.24" height="26.24" fill="#df20dc"/><circle cx="118.10000000000001" cy="275.56" r="13.12" fill="#e4db3f"/><rect x="131.22" y="262.44" width="26.24" height="26.24" fill="#df20dc"/><g transform="translate(131.22,262.44) scale(1.3119999999999998) rotate(0)"><path fill-rule="evenodd" clip-rule="evenodd" d="M10 20C15.5228 20 20 15.5228 20 10C20 4.47715 15.5228 0 10 0C4.47715 0 0 4.47715 0 10C0 15.5228 4.47715 20 10 20ZM10 17C13.866 17 17 13.866 17 10C17 6.13401 13.866 3 10 3C6.13401 3 3 6.13401 3 10C3 13.866 6.13401 17 10 17Z" fill="#e4db3f"/></g><rect x="104.98" y="288.69" width="26.24" height="26.24" fill="#df2023"/><g transform="translate(104.98,288.69) scale(1.3119999999999998) rotate(0)"><path d="M10 0L20 10L10 20L0 10L10 0Z" fill="#3633ff"/></g><rect x="131.22" y="288.69" width="26.24" height="26.24" fill="#05ff1e"/><g transform="translate(131.22,288.69) scale(1.3119999999999998) rotate(0)"><path d="M10 5L5 0L0 5L5 10L0 15L5 20L10 15L15 20L20 15L15 10L20 5L15 0L10 5Z" fill="#05ff1e"/></g><rect x="157.47" y="262.44" width="52.49" height="52.49" fill="#3633ff"/><circle cx="183.715" cy="288.685" r="26.245" fill="#05ff1e"/><rect x="0" y="314.93333333333334" width="52.48888888888889" height="52.48888888888889" fill="#000000"/><rect x="0" y="314.93" width="26.24" height="26.24" fill="#df20dc"/><g transform="translate(0,314.93) scale(1.3119999999999998) rotate(0)"><path d="M10 0L20 10L10 20L0 10L10 0Z" fill="#3633ff"/></g><rect x="26.24" y="314.93" width="26.24" height="26.24" fill="#05ff1e"/><g transform="translate(26.24,314.93) scale(1.3119999999999998) rotate(0)"><path fill-rule="evenodd" clip-rule="evenodd" d="M10 20C15.5228 20 20 15.5228 20 10C20 4.47715 15.5228 0 10 0C4.47715 0 0 4.47715 0 10C0 15.5228 4.47715 20 10 20ZM10 17C13.866 17 17 13.866 17 10C17 6.13401 13.866 3 10 3C6.13401 3 3 6.13401 3 10C3 13.866 6.13401 17 10 17Z" fill="#df2023"/></g><rect x="0" y="341.18" width="26.24" height="26.24" fill="#3633ff"/><g transform="translate(0,341.18) scale(1.3119999999999998) rotate(0)"><path fill-rule="evenodd" clip-rule="evenodd" d="M10 20C15.5228 20 20 15.5228 20 10C20 4.47715 15.5228 0 10 0C4.47715 0 0 4.47715 0 10C0 15.5228 4.47715 20 10 20ZM10 17C13.866 17 17 13.866 17 10C17 6.13401 13.866 3 10 3C6.13401 3 3 6.13401 3 10C3 13.866 6.13401 17 10 17Z" fill="#df2023"/></g><rect x="26.24" y="341.18" width="26.24" height="26.24" fill="#df20dc"/><g transform="translate(26.24,341.18) scale(1.3119999999999998) rotate(0)"><path fill-rule="evenodd" clip-rule="evenodd" d="M10 20C15.5228 20 20 15.5228 20 10C20 4.47715 15.5228 0 10 0C4.47715 0 0 4.47715 0 10C0 15.5228 4.47715 20 10 20ZM10 17C13.866 17 17 13.866 17 10C17 6.13401 13.866 3 10 3C6.13401 3 3 6.13401 3 10C3 13.866 6.13401 17 10 17Z" fill="#df20dc"/></g><rect x="52.48888888888889" y="314.93333333333334" width="52.48888888888889" height="52.48888888888889" fill="#000000"/><rect x="52.49" y="314.93" width="26.24" height="26.24" fill="#df20dc"/><g transform="translate(52.49,314.93) scale(1.3119999999999998) rotate(0)"><path fill-rule="evenodd" clip-rule="evenodd" d="M10 20C15.5228 20 20 15.5228 20 10C20 4.47715 15.5228 0 10 0C4.47715 0 0 4.47715 0 10C0 15.5228 4.47715 20 10 20ZM10 17C13.866 17 17 13.866 17 10C17 6.13401 13.866 3 10 3C6.13401 3 3 6.13401 3 10C3 13.866 6.13401 17 10 17Z" fill="#3633ff"/></g><rect x="78.73" y="314.93" width="26.24" height="26.24" fill="#df20dc"/><g transform="translate(78.73,314.93) scale(1.3119999999999998) rotate(0)"><path d="M10 5L5 0L0 5L5 10L0 15L5 20L10 15L15 20L20 15L15 10L20 5L15 0L10 5Z" fill="#3633ff"/></g><rect x="52.49" y="341.18" width="26.24" height="26.24" fill="#05ff1e"/><circle cx="65.61" cy="354.3" r="13.12" fill="#df2023"/><rect x="78.73" y="341.18" width="26.24" height="26.24" fill="#df2023"/><g transform="translate(78.73,341.18) scale(1.3119999999999998) rotate(0)"><path d="M10 5L5 0L0 5L5 10L0 15L5 20L10 15L15 20L20 15L15 10L20 5L15 0L10 5Z" fill="#df2023"/></g><rect x="104.97777777777777" y="314.93333333333334" width="52.48888888888889" height="52.48888888888889" fill="#000000"/><rect x="104.98" y="314.93" width="26.24" height="26.24" fill="#e4db3f"/><circle cx="118.10000000000001" cy="328.05" r="13.12" fill="#05ff1e"/><rect x="131.22" y="314.93" width="26.24" height="26.24" fill="#e4db3f"/><g transform="translate(131.22,314.93) scale(1.3119999999999998) rotate(0)"><path fill-rule="evenodd" clip-rule="evenodd" d="M10 20C15.5228 20 20 15.5228 20 10C20 4.47715 15.5228 0 10 0C4.47715 0 0 4.47715 0 10C0 15.5228 4.47715 20 10 20ZM10 17C13.866 17 17 13.866 17 10C17 6.13401 13.866 3 10 3C6.13401 3 3 6.13401 3 10C3 13.866 6.13401 17 10 17Z" fill="#3633ff"/></g><rect x="104.98" y="341.18" width="26.24" height="26.24" fill="#3633ff"/><circle cx="118.10000000000001" cy="354.3" r="13.12" fill="#df20dc"/><rect x="131.22" y="341.18" width="26.24" height="26.24" fill="#df20dc"/><g transform="translate(131.22,341.18) scale(1.3119999999999998) rotate(0)"><path fill-rule="evenodd" clip-rule="evenodd" d="M10 20C15.5228 20 20 15.5228 20 10C20 4.47715 15.5228 0 10 0C4.47715 0 0 4.47715 0 10C0 15.5228 4.47715 20 10 20ZM10 17C13.866 17 17 13.866 17 10C17 6.13401 13.866 3 10 3C6.13401 3 3 6.13401 3 10C3 13.866 6.13401 17 10 17Z" fill="#df20dc"/></g><rect x="157.47" y="314.93" width="52.49" height="52.49" fill="#df20dc"/><g transform="translate(157.47,314.93) scale(2.6245000000000003) rotate(0)"><path d="M10 0L20 10L10 20L0 10L10 0Z" fill="#3633ff"/></g><rect x="0" y="367.4222222222222" width="52.48888888888889" height="52.48888888888889" fill="#000000"/><rect x="0" y="367.42" width="26.24" height="26.24" fill="#e4db3f"/><g transform="translate(0,367.42) scale(1.3119999999999998) rotate(0)"><path d="M10 0L20 10L10 20L0 10L10 0Z" fill="#df20dc"/></g><rect x="26.24" y="367.42" width="26.24" height="26.24" fill="#05ff1e"/><g transform="translate(26.24,367.42) scale(1.3119999999999998) rotate(0)"><path d="M10 0L20 10L10 20L0 10L10 0Z" fill="#3633ff"/></g><rect x="0" y="393.67" width="26.24" height="26.24" fill="#3633ff"/><g transform="translate(0,393.67) scale(1.3119999999999998) rotate(0)"><path d="M10 5L5 0L0 5L5 10L0 15L5 20L10 15L15 20L20 15L15 10L20 5L15 0L10 5Z" fill="#05ff1e"/></g><rect x="26.24" y="393.67" width="26.24" height="26.24" fill="#df20dc"/><g transform="translate(26.24,393.67) scale(1.3119999999999998) rotate(0)"><path d="M10 5L5 0L0 5L5 10L0 15L5 20L10 15L15 20L20 15L15 10L20 5L15 0L10 5Z" fill="#05ff1e"/></g><rect x="52.49" y="367.42" width="52.49" height="52.49" fill="#3633ff"/><circle cx="78.735" cy="393.665" r="26.245" fill="#05ff1e"/><rect x="104.98" y="367.42" width="52.49" height="52.49" fill="#df2023"/><g transform="translate(104.98,367.42) scale(2.6245000000000003) rotate(0)"><path d="M10 0L20 10L10 20L0 10L10 0Z" fill="#3633ff"/></g><rect x="157.46666666666667" y="367.4222222222222" width="52.48888888888889" height="52.48888888888889" fill="#000000"/><rect x="157.47" y="367.42" width="26.24" height="26.24" fill="#05ff1e"/><g transform="translate(157.47,367.42) scale(1.3119999999999998) rotate(0)"><path fill-rule="evenodd" clip-rule="evenodd" d="M10 20C15.5228 20 20 15.5228 20 10C20 4.47715 15.5228 0 10 0C4.47715 0 0 4.47715 0 10C0 15.5228 4.47715 20 10 20ZM10 17C13.866 17 17 13.866 17 10C17 6.13401 13.866 3 10 3C6.13401 3 3 6.13401 3 10C3 13.866 6.13401 17 10 17Z" fill="#3633ff"/></g><rect x="183.71" y="367.42" width="26.24" height="26.24" fill="#df20dc"/><g transform="translate(183.71,367.42) scale(1.3119999999999998) rotate(0)"><path d="M10 5L5 0L0 5L5 10L0 15L5 20L10 15L15 20L20 15L15 10L20 5L15 0L10 5Z" fill="#df2023"/></g><rect x="157.47" y="393.67" width="26.24" height="26.24" fill="#05ff1e"/><g transform="translate(157.47,393.67) scale(1.3119999999999998) rotate(0)"><path d="M10 0L20 10L10 20L0 10L10 0Z" fill="#df20dc"/></g><rect x="183.71" y="393.67" width="26.24" height="26.24" fill="#e4db3f"/><g transform="translate(183.71,393.67) scale(1.3119999999999998) rotate(0)"><path d="M10 5L5 0L0 5L5 10L0 15L5 20L10 15L15 20L20 15L15 10L20 5L15 0L10 5Z" fill="#df20dc"/></g><rect x="0" y="419.91" width="52.49" height="52.49" fill="#df2023"/><g transform="translate(0,419.91) scale(2.6245000000000003) rotate(0)"><path d="M10 0L20 10L10 20L0 10L10 0Z" fill="#e4db3f"/></g><rect x="52.49" y="419.91" width="52.49" height="52.49" fill="#05ff1e"/><g transform="translate(52.49,419.91) scale(2.6245000000000003) rotate(0)"><path d="M10 0L20 10L10 20L0 10L10 0Z" fill="#df20dc"/></g><rect x="104.98" y="419.91" width="52.49" height="52.49" fill="#05ff1e"/><g transform="translate(104.98,419.91) scale(2.6245000000000003) rotate(0)"><path d="M10 0L20 10L10 20L0 10L10 0Z" fill="#3633ff"/></g><rect x="157.47" y="419.91" width="52.49" height="52.49" fill="#3633ff"/><g transform="translate(157.47,419.91) scale(2.6245000000000003) rotate(0)"><path d="M10 0L20 10L10 20L0 10L10 0Z" fill="#df20dc"/></g></g></svg>