<?xml version="1.0" standalone="no"?><svg xmlns:xlink="http://www.w3.org/1999/xlink" xmlns="http://www.w3.org/2000/svg" viewBox="0 0 1000 3000.088910340273" preserveAspectRatio="xMaxYMax slice"><g transform="scale(6.350738590898122)"><rect x="0" y="0" width="157.46666666666667" height="472.4" fill="#293c65"/><rect x="2.62" y="2.62" width="21" height="21" fill="#419e41"/><polygon points="23.62,2.62 23.62,23.62 2.62,23.62" fill="#4ac433"/><rect x="28.86888888888889" y="2.6244444444444444" width="20.995555555555555" height="20.995555555555555" fill="#293c65"/><rect x="28.87" y="2.62" width="10.5" height="10.5" fill="#2a3c65"/><path d="M 28.87 13.120000000000001 A 10.5 10.5 0 0 0 39.370000000000005 2.62 L 28.87 2.62L28.87 13.120000000000001" fill="#7a2d45"/><rect x="39.37" y="2.62" width="10.5" height="10.5" fill="#45ad3c"/><path d="M 39.37 2.62 A 10.5 10.5 0 0 0 49.87 13.120000000000001 L 49.87 2.62L39.37 2.62" fill="#346955"/><rect x="28.87" y="13.12" width="10.5" height="10.5" fill="#513455"/><path d="M 28.87 13.12 A 10.5 10.5 0 0 1 39.370000000000005 23.619999999999997 L 28.87 23.619999999999997L28.87 13.12" fill="#356d53"/><rect x="39.37" y="13.12" width="10.5" height="10.5" fill="#2c4661"/><path d="M 39.37 23.619999999999997 A 10.5 10.5 0 0 1  49.87 13.12 L 49.87 23.619999999999997L39.37 23.619999999999997" fill="#3b395e"/><rect x="55.11" y="2.62" width="21" height="21" fill="#cc1d24"/><path d="M 55.11 2.62 A 21 21 0 0 0 76.11 23.62 L 76.11 2.62L55.11 2.62" fill="#3a395e"/><rect x="81.36" y="2.62" width="21" height="21" fill="#52e527"/><polygon points="81.36,2.62 102.36,2.62 102.36,23.62" fill="#f41614"/><rect x="107.60222222222222" y="2.6244444444444444" width="20.995555555555555" height="20.995555555555555" fill="#293c65"/><rect x="107.6" y="2.62" width="10.5" height="10.5" fill="#802c42"/><polygon points="118.1,2.62 118.1,13.120000000000001 107.6,13.120000000000001" fill="#48b937"/><rect x="118.1" y="2.62" width="10.5" height="10.5" fill="#30575b"/><polygon points="118.1,2.62 128.6,13.120000000000001 118.1,13.120000000000001" fill="#48bc36"/><rect x="107.6" y="13.12" width="10.5" height="10.5" fill="#47b638"/><polygon points="107.6,13.12 118.1,13.12 118.1,23.619999999999997" fill="#f11615"/><rect x="118.1" y="13.12" width="10.5" height="10.5" fill="#992738"/><polygon points="118.1,13.12 128.6,13.12 118.1,23.619999999999997" fill="#513455"/><rect x="133.84666666666666" y="2.6244444444444444" width="20.995555555555555" height="20.995555555555555" fill="#293c65"/><rect x="133.85" y="2.62" width="10.5" height="10.5" fill="#dc1a1d"/><path d="M 133.85 13.120000000000001 A 10.5 10.5 0 0 1 144.35 2.62 L 144.35 5.245 A 7.875 7.875 0 0 0 136.475 13.120000000000001" fill="#533454"/><rect x="144.34" y="2.62" width="10.5" height="10.5" fill="#2d4b60"/><path d="M 144.34 2.62 A 10.5 10.5 0 0 1 154.84 13.120000000000001 L 152.215 13.120000000000001 A 7.875 7.875 0 0 0 144.34 5.245" fill="#4dd12e"/><rect x="133.85" y="13.12" width="10.5" height="10.5" fill="#2b4661"/><path d="M 133.85 13.12 A 10.5 10.5 0 0 0 144.35 23.619999999999997 L 144.35 20.994999999999997 A 7.875 7.875 0 0 1 136.475 13.12" fill="#53e826"/><rect x="144.34" y="13.12" width="10.5" height="10.5" fill="#49be35"/><path d="M 144.34 23.619999999999997 A 10.5 10.5 0 0 0 154.84 13.12 L 152.215 13.12 A 7.875 7.875 0 0 1 144.34 20.994999999999997" fill="#409a42"/><rect x="2.62" y="28.87" width="21" height="21" fill="#702f49"/><polygon points="23.62,28.87 23.62,49.870000000000005 2.62,49.870000000000005" fill="#419d41"/><rect x="28.87" y="28.87" width="21" height="21" fill="#45ad3c"/><path d="M 28.87 49.870000000000005 A 21 21 0 0 0 49.870000000000005 28.87 L 28.87 28.87L28.87 49.870000000000005" fill="#a12635"/><rect x="55.11" y="28.87" width="21" height="21" fill="#722e48"/><rect x="55.11" y="28.87" width="21" height="21" fill="#b5222d"/><rect x="81.35777777777778" y="28.86888888888889" width="20.995555555555555" height="20.995555555555555" fill="#293c65"/><rect x="81.36" y="28.87" width="10.5" height="10.5" fill="#7b2d44"/><path d="M 81.36 39.370000000000005 A 10.5 10.5 0 0 1  91.86 28.87 L 91.86 39.370000000000005L81.36 39.370000000000005" fill="#4ccb31"/><rect x="91.86" y="28.87" width="10.5" height="10.5" fill="#892a3f"/><path d="M 91.86 28.87 A 10.5 10.5 0 0 1 102.36 39.370000000000005 L 91.86 39.370000000000005L91.86 28.87" fill="#49bf35"/><rect x="81.36" y="39.37" width="10.5" height="10.5" fill="#44375a"/><path d="M 81.36 39.37 A 10.5 10.5 0 0 0 91.86 49.87 L 91.86 39.37L81.36 39.37" fill="#52e627"/><rect x="91.86" y="39.37" width="10.5" height="10.5" fill="#46b23a"/><path d="M 91.86 49.87 A 10.5 10.5 0 0 0 102.36 39.37 L 91.86 39.37L91.86 49.87" fill="#3e9046"/><rect x="107.60222222222222" y="28.86888888888889" width="20.995555555555555" height="20.995555555555555" fill="#293c65"/><rect x="107.6" y="28.87" width="10.5" height="10.5" fill="#4fd92b"/><polygon points="118.1,28.87 118.1,39.370000000000005 107.6,39.370000000000005" fill="#b3222e"/><rect x="118.1" y="28.87" width="10.5" height="10.5" fill="#52e527"/><polygon points="118.1,28.87 128.6,39.370000000000005 118.1,39.370000000000005" fill="#326157"/><rect x="107.6" y="39.37" width="10.5" height="10.5" fill="#ca1e25"/><polygon points="107.6,39.37 118.1,39.37 107.6,49.87" fill="#2c4a60"/><rect x="118.1" y="39.37" width="10.5" height="10.5" fill="#46375a"/><polygon points="118.1,39.37 128.6,39.37 128.6,49.87" fill="#52e428"/><rect x="133.85" y="28.87" width="21" height="21" fill="#4e3556"/><rect x="133.85" y="28.87" width="21" height="21" fill="#3c8b48"/><rect x="2.62" y="55.11" width="21" height="21" fill="#4fd72c"/><rect x="2.62" y="55.11" width="21" height="21" fill="#ae2330"/><rect x="28.87" y="55.11" width="21" height="21" fill="#419f41"/><path d="M 28.87 76.11 A 21 21 0 0 1  49.870000000000005 55.11 L 49.870000000000005 76.11L28.87 76.11" fill="#b2222e"/><rect x="55.11" y="55.11" width="21" height="21" fill="#2c3b64"/><path d="M 55.11 76.11 A 21 21 0 0 1  76.11 55.11 L 55.11 76.11 A 21 21 0 0 0 76.11 55.11" fill="#3a814c"/><rect x="81.35777777777778" y="55.11333333333333" width="20.995555555555555" height="20.995555555555555" fill="#293c65"/><rect x="81.36" y="55.11" width="10.5" height="10.5" fill="#50da2b"/><polygon points="91.86,55.11 91.86,65.61 81.36,65.61" fill="#a52533"/><rect x="91.86" y="55.11" width="10.5" height="10.5" fill="#e01a1c"/><polygon points="91.86,55.11 102.36,65.61 91.86,65.61" fill="#bf2029"/><rect x="81.36" y="65.61" width="10.5" height="10.5" fill="#f01716"/><polygon points="81.36,65.61 91.86,65.61 81.36,76.11" fill="#346b54"/><rect x="91.86" y="65.61" width="10.5" height="10.5" fill="#315c59"/><polygon points="91.86,65.61 102.36,65.61 102.36,76.11" fill="#325f58"/><rect x="107.6" y="55.11" width="21" height="21" fill="#367052"/><rect x="107.6" y="55.11" width="21" height="21" fill="#49be35"/><rect x="133.84666666666666" y="55.11333333333333" width="20.995555555555555" height="20.995555555555555" fill="#293c65"/><rect x="133.85" y="55.11" width="10.5" height="10.5" fill="#4ed52d"/><polygon points="144.35,55.11 144.35,65.61 133.85,65.61" fill="#51e228"/><rect x="144.34" y="55.11" width="10.5" height="10.5" fill="#94283a"/><polygon points="144.34,55.11 154.84,55.11 144.34,65.61" fill="#50dd2a"/><rect x="133.85" y="65.61" width="10.5" height="10.5" fill="#ba212b"/><polygon points="133.85,65.61 144.35,65.61 144.35,76.11" fill="#ad2330"/><rect x="144.34" y="65.61" width="10.5" height="10.5" fill="#523455"/><polygon points="144.34,65.61 154.84,76.11 144.34,76.11" fill="#4bc732"/><rect x="2.62" y="81.36" width="21" height="21" fill="#43a73e"/><polygon points="2.62,81.36 23.62,81.36 2.62,102.36" fill="#4fd82c"/><rect x="28.86888888888889" y="81.35777777777778" width="20.995555555555555" height="20.995555555555555" fill="#293c65"/><rect x="28.87" y="81.36" width="10.5" height="10.5" fill="#397d4d"/><polygon points="39.370000000000005,81.36 39.370000000000005,91.86 28.87,91.86" fill="#46b23a"/><rect x="39.37" y="81.36" width="10.5" height="10.5" fill="#a12535"/><polygon points="39.37,81.36 49.87,91.86 39.37,91.86" fill="#4bc832"/><rect x="28.87" y="91.86" width="10.5" height="10.5" fill="#397e4d"/><polygon points="28.87,91.86 39.370000000000005,91.86 39.370000000000005,102.36" fill="#2b4661"/><rect x="39.37" y="91.86" width="10.5" height="10.5" fill="#43a73e"/><polygon points="39.37,91.86 49.87,91.86 39.37,102.36" fill="#bf2029"/><rect x="55.11333333333333" y="81.35777777777778" width="20.995555555555555" height="20.995555555555555" fill="#293c65"/><rect x="55.11" y="81.36" width="10.5" height="10.5" fill="#2c3b64"/><path d="M 55.11 91.86 A 10.5 10.5 0 0 1  65.61 81.36 L 65.61 91.86L55.11 91.86" fill="#3e9146"/><rect x="65.61" y="81.36" width="10.5" height="10.5" fill="#cf1d23"/><path d="M 65.61 81.36 A 10.5 10.5 0 0 1 76.11 91.86 L 65.61 91.86L65.61 81.36" fill="#409b42"/><rect x="55.11" y="91.86" width="10.5" height="10.5" fill="#47b638"/><path d="M 55.11 91.86 A 10.5 10.5 0 0 0 65.61 102.36 L 65.61 91.86L55.11 91.86" fill="#44a93d"/><rect x="65.61" y="91.86" width="10.5" height="10.5" fill="#37774f"/><path d="M 65.61 102.36 A 10.5 10.5 0 0 0 76.11 91.86 L 65.61 91.86L65.61 102.36" fill="#4fd62c"/><rect x="81.35777777777778" y="81.35777777777778" width="20.995555555555555" height="20.995555555555555" fill="#293c65"/><rect x="81.36" y="81.36" width="10.5" height="10.5" fill="#b8212c"/><path d="M 81.36 91.86 A 10.5 10.5 0 0 1  91.86 81.36 L 91.86 91.86L81.36 91.86" fill="#513555"/><rect x="91.86" y="81.36" width="10.5" height="10.5" fill="#4ac134"/><path d="M 91.86 81.36 A 10.5 10.5 0 0 1 102.36 91.86 L 91.86 91.86L91.86 81.36" fill="#a52534"/><rect x="81.36" y="91.86" width="10.5" height="10.5" fill="#4dd02f"/><path d="M 81.36 91.86 A 10.5 10.5 0 0 0 91.86 102.36 L 91.86 91.86L81.36 91.86" fill="#ea1818"/><rect x="91.86" y="91.86" width="10.5" height="10.5" fill="#94283a"/><path d="M 91.86 102.36 A 10.5 10.5 0 0 0 102.36 91.86 L 91.86 91.86L91.86 102.36" fill="#4ed32e"/><rect x="107.6" y="81.36" width="21" height="21" fill="#42a43f"/><rect x="107.6" y="81.36" width="21" height="21" fill="#5f324f"/><rect x="133.84666666666666" y="81.35777777777778" width="20.995555555555555" height="20.995555555555555" fill="#293c65"/><rect x="133.85" y="81.36" width="10.5" height="10.5" fill="#48bb37"/><circle cx="139.1" cy="86.61" r="5.25" fill="#50db2b"/><rect x="144.34" y="81.36" width="10.5" height="10.5" fill="#419d41"/><rect x="144.34" y="81.36" width="10.5" height="10.5" fill="#356f52"/><rect x="133.85" y="91.86" width="10.5" height="10.5" fill="#38794f"/><circle cx="139.1" cy="97.11" r="5.25" fill="#43a83e"/><rect x="144.34" y="91.86" width="10.5" height="10.5" fill="#b0232f"/><rect x="144.34" y="91.86" width="10.5" height="10.5" fill="#49c035"/><rect x="2.62" y="107.6" width="21" height="21" fill="#45ae3b"/><polygon points="2.62,107.6 23.62,107.6 23.62,128.6" fill="#6f2f49"/><rect x="28.87" y="107.6" width="21" height="21" fill="#da1b1e"/><path d="M 28.87 128.6 A 21 21 0 0 1  49.870000000000005 107.6 L 49.870000000000005 128.6L28.87 128.6" fill="#52e328"/><rect x="55.11" y="107.6" width="21" height="21" fill="#387b4e"/><path d="M 55.11 107.6 A 21 21 0 0 0 76.11 128.6 L 76.11 107.6L55.11 107.6" fill="#4ccc30"/><rect x="81.35777777777778" y="107.60222222222222" width="20.995555555555555" height="20.995555555555555" fill="#293c65"/><rect x="81.36" y="107.6" width="10.5" height="10.5" fill="#3d8f47"/><path d="M 81.36 118.1 A 10.5 10.5 0 0 0 91.86 107.6 L 81.36 107.6L81.36 118.1" fill="#583352"/><rect x="91.86" y="107.6" width="10.5" height="10.5" fill="#336656"/><path d="M 91.86 107.6 A 10.5 10.5 0 0 0 102.36 118.1 L 102.36 107.6L91.86 107.6" fill="#356e53"/><rect x="81.36" y="118.1" width="10.5" height="10.5" fill="#39395f"/><path d="M 81.36 118.1 A 10.5 10.5 0 0 1 91.86 128.6 L 81.36 128.6L81.36 118.1" fill="#3c8a48"/><rect x="91.86" y="118.1" width="10.5" height="10.5" fill="#4c3557"/><path d="M 91.86 128.6 A 10.5 10.5 0 0 1  102.36 118.1 L 102.36 128.6L91.86 128.6" fill="#7e2c43"/><rect x="107.60222222222222" y="107.60222222222222" width="20.995555555555555" height="20.995555555555555" fill="#293c65"/><rect x="107.6" y="107.6" width="10.5" height="10.5" fill="#60324f"/><circle cx="112.85" cy="112.85" r="5.25" fill="#3e9245"/><rect x="118.1" y="107.6" width="10.5" height="10.5" fill="#ca1e25"/><rect x="118.1" y="107.6" width="10.5" height="10.5" fill="#4cca31"/><rect x="107.6" y="118.1" width="10.5" height="10.5" fill="#812b42"/><circle cx="112.85" cy="123.35" r="5.25" fill="#336556"/><rect x="118.1" y="118.1" width="10.5" height="10.5" fill="#4dcf2f"/><rect x="118.1" y="118.1" width="10.5" height="10.5" fill="#8d293d"/><rect x="133.84666666666666" y="107.60222222222222" width="20.995555555555555" height="20.995555555555555" fill="#293c65"/><rect x="133.85" y="107.6" width="10.5" height="10.5" fill="#8d293d"/><path d="M 133.85 118.1 A 10.5 10.5 0 0 1 144.35 107.6 L 144.35 110.225 A 7.875 7.875 0 0 0 136.475 118.1" fill="#2c3b64"/><rect x="144.34" y="107.6" width="10.5" height="10.5" fill="#2e505e"/><path d="M 144.34 107.6 A 10.5 10.5 0 0 1 154.84 118.1 L 152.215 118.1 A 7.875 7.875 0 0 0 144.34 110.225" fill="#b6222d"/><rect x="133.85" y="118.1" width="10.5" height="10.5" fill="#4ccb31"/><path d="M 133.85 118.1 A 10.5 10.5 0 0 0 144.35 128.6 L 144.35 125.975 A 7.875 7.875 0 0 1 136.475 118.1" fill="#f51613"/><rect x="144.34" y="118.1" width="10.5" height="10.5" fill="#48bb37"/><path d="M 144.34 128.6 A 10.5 10.5 0 0 0 154.84 118.1 L 152.215 118.1 A 7.875 7.875 0 0 1 144.34 125.975" fill="#2d3b63"/><rect x="2.6244444444444444" y="133.84666666666666" width="20.995555555555555" height="20.995555555555555" fill="#293c65"/><rect x="2.62" y="133.85" width="10.5" height="10.5" fill="#583352"/><polygon points="13.120000000000001,133.85 13.120000000000001,144.35 2.62,144.35" fill="#49bf35"/><rect x="13.12" y="133.85" width="10.5" height="10.5" fill="#fb1511"/><polygon points="13.12,133.85 23.619999999999997,133.85 13.12,144.35" fill="#de1a1d"/><rect x="2.62" y="144.34" width="10.5" height="10.5" fill="#e1191c"/><polygon points="2.62,144.34 13.120000000000001,144.34 13.120000000000001,154.84" fill="#f81512"/><rect x="13.12" y="144.34" width="10.5" height="10.5" fill="#397f4d"/><polygon points="13.12,144.34 23.619999999999997,154.84 13.12,154.84" fill="#a82432"/><rect x="28.86888888888889" y="133.84666666666666" width="20.995555555555555" height="20.995555555555555" fill="#293c65"/><rect x="28.87" y="133.85" width="10.5" height="10.5" fill="#3e9146"/><path d="M 28.87 133.85 A 10.5 10.5 0 0 0 39.370000000000005 144.35 L 39.370000000000005 133.85L28.87 133.85" fill="#50db2b"/><rect x="39.37" y="133.85" width="10.5" height="10.5" fill="#6d2f4a"/><path d="M 39.37 144.35 A 10.5 10.5 0 0 0 49.87 133.85 L 39.37 133.85L39.37 144.35" fill="#b5222d"/><rect x="28.87" y="144.34" width="10.5" height="10.5" fill="#3e9345"/><path d="M 28.87 154.84 A 10.5 10.5 0 0 1  39.370000000000005 144.34 L 39.370000000000005 154.84L28.87 154.84" fill="#3f9644"/><rect x="39.37" y="144.34" width="10.5" height="10.5" fill="#90293c"/><path d="M 39.37 144.34 A 10.5 10.5 0 0 1 49.87 154.84 L 39.37 154.84L39.37 144.34" fill="#2a4063"/><rect x="55.11333333333333" y="133.84666666666666" width="20.995555555555555" height="20.995555555555555" fill="#293c65"/><rect x="55.11" y="133.85" width="10.5" height="10.5" fill="#397d4d"/><path d="M 55.11 144.35 A 10.5 10.5 0 0 1 65.61 133.85 L 65.61 136.475 A 7.875 7.875 0 0 0 57.735 144.35" fill="#a12535"/><rect x="65.61" y="133.85" width="10.5" height="10.5" fill="#3b864a"/><path d="M 65.61 133.85 A 10.5 10.5 0 0 1 76.11 144.35 L 73.485 144.35 A 7.875 7.875 0 0 0 65.61 136.475" fill="#363960"/><rect x="55.11" y="144.34" width="10.5" height="10.5" fill="#4fd82c"/><path d="M 55.11 144.34 A 10.5 10.5 0 0 0 65.61 154.84 L 65.61 152.215 A 7.875 7.875 0 0 1 57.735 144.34" fill="#4ccd30"/><rect x="65.61" y="144.34" width="10.5" height="10.5" fill="#2f535d"/><path d="M 65.61 154.84 A 10.5 10.5 0 0 0 76.11 144.34 L 73.485 144.34 A 7.875 7.875 0 0 1 65.61 152.215" fill="#812c42"/><rect x="81.35777777777778" y="133.84666666666666" width="20.995555555555555" height="20.995555555555555" fill="#293c65"/><rect x="81.36" y="133.85" width="10.5" height="10.5" fill="#41a040"/><polygon points="91.86,133.85 91.86,144.35 81.36,144.35" fill="#49c035"/><rect x="91.86" y="133.85" width="10.5" height="10.5" fill="#6f2f49"/><polygon points="91.86,133.85 102.36,144.35 91.86,144.35" fill="#397f4c"/><rect x="81.36" y="144.34" width="10.5" height="10.5" fill="#293d65"/><polygon points="81.36,144.34 91.86,144.34 91.86,154.84" fill="#d31c21"/><rect x="91.86" y="144.34" width="10.5" height="10.5" fill="#46b539"/><polygon points="91.86,144.34 102.36,144.34 91.86,154.84" fill="#b0232f"/><rect x="107.6" y="133.85" width="21" height="21" fill="#d21c21"/><rect x="107.6" y="133.85" width="21" height="21" fill="#e91819"/><rect x="133.84666666666666" y="133.84666666666666" width="20.995555555555555" height="20.995555555555555" fill="#293c65"/><rect x="133.85" y="133.85" width="10.5" height="10.5" fill="#2a3e64"/><polygon points="144.35,133.85 144.35,144.35 133.85,144.35" fill="#d11c22"/><rect x="144.34" y="133.85" width="10.5" height="10.5" fill="#da1b1f"/><polygon points="144.34,133.85 154.84,133.85 144.34,144.35" fill="#49bf35"/><rect x="133.85" y="144.34" width="10.5" height="10.5" fill="#2d4b5f"/><polygon points="133.85,144.34 144.35,144.34 144.35,154.84" fill="#f01716"/><rect x="144.34" y="144.34" width="10.5" height="10.5" fill="#68304c"/><polygon points="144.34,144.34 154.84,154.84 144.34,154.84" fill="#4bc632"/><rect x="2.62" y="160.09" width="21" height="21" fill="#42a33f"/><polygon points="2.62,160.09 23.62,160.09 23.62,181.09" fill="#30585b"/><rect x="28.86888888888889" y="160.0911111111111" width="20.995555555555555" height="20.995555555555555" fill="#293c65"/><rect x="28.87" y="160.09" width="10.5" height="10.5" fill="#ef1716"/><path d="M 28.87 170.59 A 10.5 10.5 0 0 1  39.370000000000005 160.09 L 39.370000000000005 170.59L28.87 170.59" fill="#c21f28"/><rect x="39.37" y="160.09" width="10.5" height="10.5" fill="#e01a1c"/><path d="M 39.37 160.09 A 10.5 10.5 0 0 1 49.87 170.59 L 39.37 170.59L39.37 160.09" fill="#742e47"/><rect x="28.87" y="170.59" width="10.5" height="10.5" fill="#2c4761"/><path d="M 28.87 170.59 A 10.5 10.5 0 0 0 39.370000000000005 181.09 L 39.370000000000005 170.59L28.87 170.59" fill="#2a4063"/><rect x="39.37" y="170.59" width="10.5" height="10.5" fill="#593352"/><path d="M 39.37 181.09 A 10.5 10.5 0 0 0 49.87 170.59 L 39.37 170.59L39.37 181.09" fill="#91293c"/><rect x="55.11333333333333" y="160.0911111111111" width="20.995555555555555" height="20.995555555555555" fill="#293c65"/><rect x="55.11" y="160.09" width="10.5" height="10.5" fill="#e6191a"/><polygon points="65.61,160.09 65.61,170.59 55.11,170.59" fill="#473659"/><rect x="65.61" y="160.09" width="10.5" height="10.5" fill="#46b339"/><polygon points="65.61,160.09 76.11,170.59 65.61,170.59" fill="#e3191b"/><rect x="55.11" y="170.59" width="10.5" height="10.5" fill="#92283b"/><polygon points="55.11,170.59 65.61,170.59 55.11,181.09" fill="#593352"/><rect x="65.61" y="170.59" width="10.5" height="10.5" fill="#3a834b"/><polygon points="65.61,170.59 76.11,170.59 76.11,181.09" fill="#473659"/><rect x="81.35777777777778" y="160.0911111111111" width="20.995555555555555" height="20.995555555555555" fill="#293c65"/><rect x="81.36" y="160.09" width="10.5" height="10.5" fill="#b7212c"/><path d="M 81.36 170.59 A 10.5 10.5 0 0 1  91.86 160.09 L 91.86 170.59L81.36 170.59" fill="#3b854a"/><rect x="91.86" y="160.09" width="10.5" height="10.5" fill="#722e48"/><path d="M 91.86 160.09 A 10.5 10.5 0 0 1 102.36 170.59 L 91.86 170.59L91.86 160.09" fill="#42a240"/><rect x="81.36" y="170.59" width="10.5" height="10.5" fill="#f11615"/><path d="M 81.36 170.59 A 10.5 10.5 0 0 0 91.86 181.09 L 91.86 170.59L81.36 170.59" fill="#3a804c"/><rect x="91.86" y="170.59" width="10.5" height="10.5" fill="#4a3658"/><path d="M 91.86 181.09 A 10.5 10.5 0 0 0 102.36 170.59 L 91.86 170.59L91.86 181.09" fill="#346a54"/><rect x="107.60222222222222" y="160.0911111111111" width="20.995555555555555" height="20.995555555555555" fill="#293c65"/><rect x="107.6" y="160.09" width="10.5" height="10.5" fill="#44375a"/><polygon points="118.1,160.09 118.1,170.59 107.6,170.59" fill="#42a140"/><rect x="118.1" y="160.09" width="10.5" height="10.5" fill="#50db2b"/><polygon points="118.1,160.09 128.6,160.09 118.1,170.59" fill="#6b304a"/><rect x="107.6" y="170.59" width="10.5" height="10.5" fill="#fc1411"/><polygon points="107.6,170.59 118.1,170.59 118.1,181.09" fill="#742e47"/><rect x="118.1" y="170.59" width="10.5" height="10.5" fill="#46375a"/><polygon points="118.1,170.59 128.6,181.09 118.1,181.09" fill="#38784f"/><rect x="133.85" y="160.09" width="21" height="21" fill="#4ccd30"/><polygon points="133.85,160.09 154.85,160.09 133.85,181.09" fill="#2d4c5f"/><rect x="2.62" y="186.34" width="21" height="21" fill="#3f9744"/><polygon points="2.62,186.34 23.62,186.34 23.62,207.34" fill="#4fd82c"/><rect x="28.86888888888889" y="186.33555555555554" width="20.995555555555555" height="20.995555555555555" fill="#293c65"/><rect x="28.87" y="186.34" width="10.5" height="10.5" fill="#802c42"/><polygon points="39.370000000000005,186.34 39.370000000000005,196.84 28.87,196.84" fill="#c21f28"/><rect x="39.37" y="186.34" width="10.5" height="10.5" fill="#44ac3c"/><polygon points="39.37,186.34 49.87,186.34 39.37,196.84" fill="#cb1e24"/><rect x="28.87" y="196.83" width="10.5" height="10.5" fill="#2d4b5f"/><polygon points="28.87,196.83 39.370000000000005,196.83 39.370000000000005,207.33" fill="#fd1411"/><rect x="39.37" y="196.83" width="10.5" height="10.5" fill="#397c4d"/><polygon points="39.37,196.83 49.87,207.33 39.37,207.33" fill="#305a5a"/><rect x="55.11" y="186.34" width="21" height="21" fill="#42a240"/><rect x="55.11" y="186.34" width="21" height="21" fill="#62314e"/><rect x="81.36" y="186.34" width="21" height="21" fill="#95283a"/><rect x="81.36" y="186.34" width="21" height="21" fill="#852b40"/><rect x="107.6" y="186.34" width="21" height="21" fill="#af232f"/><path d="M 107.6 186.34 A 21 21 0 0 0 128.6 207.34 L 128.6 186.34L107.6 186.34" fill="#c41f27"/><rect x="133.84666666666666" y="186.33555555555554" width="20.995555555555555" height="20.995555555555555" fill="#293c65"/><rect x="133.85" y="186.34" width="10.5" height="10.5" fill="#a22535"/><path d="M 133.85 186.34 A 10.5 10.5 0 0 1 144.35 196.84 L 133.85 196.84L133.85 186.34" fill="#2f545c"/><rect x="144.34" y="186.34" width="10.5" height="10.5" fill="#a72433"/><path d="M 144.34 196.84 A 10.5 10.5 0 0 1  154.84 186.34 L 154.84 196.84L144.34 196.84" fill="#7f2c43"/><rect x="133.85" y="196.83" width="10.5" height="10.5" fill="#4ac433"/><path d="M 133.85 207.33 A 10.5 10.5 0 0 0 144.35 196.83 L 133.85 196.83L133.85 207.33" fill="#523455"/><rect x="144.34" y="196.83" width="10.5" height="10.5" fill="#d41c21"/><path d="M 144.34 196.83 A 10.5 10.5 0 0 0 154.84 207.33 L 154.84 196.83L144.34 196.83" fill="#4fd62c"/><rect x="2.62" y="212.58" width="21" height="21" fill="#45af3b"/><polygon points="23.62,212.58 23.62,233.58 2.62,233.58" fill="#3b854a"/><rect x="28.87" y="212.58" width="21" height="21" fill="#3e9246"/><polygon points="28.87,212.58 49.870000000000005,212.58 28.87,233.58" fill="#c11f28"/><rect x="55.11333333333333" y="212.57999999999998" width="20.995555555555555" height="20.995555555555555" fill="#293c65"/><rect x="55.11" y="212.58" width="10.5" height="10.5" fill="#45af3b"/><path d="M 55.11 212.58 A 10.5 10.5 0 0 1 65.61 223.08 L 55.11 223.08L55.11 212.58" fill="#4fd62d"/><rect x="65.61" y="212.58" width="10.5" height="10.5" fill="#d41c21"/><path d="M 65.61 223.08 A 10.5 10.5 0 0 1  76.11 212.58 L 76.11 223.08L65.61 223.08" fill="#367152"/><rect x="55.11" y="223.08" width="10.5" height="10.5" fill="#52e627"/><path d="M 55.11 233.58 A 10.5 10.5 0 0 0 65.61 223.08 L 55.11 223.08L55.11 233.58" fill="#336655"/><rect x="65.61" y="223.08" width="10.5" height="10.5" fill="#f21615"/><path d="M 65.61 223.08 A 10.5 10.5 0 0 0 76.11 233.58 L 76.11 223.08L65.61 223.08" fill="#eb1717"/><rect x="81.36" y="212.58" width="21" height="21" fill="#387b4e"/><path d="M 81.36 233.58 A 21 21 0 0 0 102.36 212.58 L 81.36 212.58L81.36 233.58" fill="#4ac234"/><rect x="107.60222222222222" y="212.57999999999998" width="20.995555555555555" height="20.995555555555555" fill="#293c65"/><rect x="107.6" y="212.58" width="10.5" height="10.5" fill="#293d65"/><polygon points="118.1,212.58 118.1,223.08 107.6,223.08" fill="#c81e25"/><rect x="118.1" y="212.58" width="10.5" height="10.5" fill="#41a041"/><polygon points="118.1,212.58 128.6,223.08 118.1,223.08" fill="#9d2637"/><rect x="107.6" y="223.08" width="10.5" height="10.5" fill="#972739"/><polygon points="107.6,223.08 118.1,223.08 118.1,233.58" fill="#4e3556"/><rect x="118.1" y="223.08" width="10.5" height="10.5" fill="#ee1716"/><polygon points="118.1,223.08 128.6,223.08 118.1,233.58" fill="#d21c22"/><rect x="133.85" y="212.58" width="21" height="21" fill="#45b03b"/><path d="M 133.85 212.58 A 21 21 0 0 1 154.85 233.58 L 133.85 233.58L133.85 212.58" fill="#346955"/><rect x="2.62" y="238.82" width="21" height="21" fill="#9f2636"/><polygon points="2.62,238.82 23.62,238.82 2.62,259.82" fill="#3c395e"/><rect x="28.87" y="238.82" width="21" height="21" fill="#92283b"/><path d="M 28.87 238.82 A 21 21 0 0 0 49.870000000000005 259.82 L 49.870000000000005 238.82L28.87 238.82" fill="#409c42"/><rect x="55.11" y="238.82" width="21" height="21" fill="#cc1d24"/><polygon points="55.11,238.82 76.11,238.82 76.11,259.82" fill="#4bc832"/><rect x="81.35777777777778" y="238.82444444444442" width="20.995555555555555" height="20.995555555555555" fill="#293c65"/><rect x="81.36" y="238.82" width="10.5" height="10.5" fill="#356c53"/><path d="M 81.36 238.82 A 10.5 10.5 0 0 1 91.86 249.32 L 81.36 249.32L81.36 238.82" fill="#409a43"/><rect x="91.86" y="238.82" width="10.5" height="10.5" fill="#30595a"/><path d="M 91.86 249.32 A 10.5 10.5 0 0 1  102.36 238.82 L 102.36 249.32L91.86 249.32" fill="#3f9843"/><rect x="81.36" y="249.32" width="10.5" height="10.5" fill="#ab2431"/><path d="M 81.36 259.82 A 10.5 10.5 0 0 0 91.86 249.32 L 81.36 249.32L81.36 259.82" fill="#822b42"/><rect x="91.86" y="249.32" width="10.5" height="10.5" fill="#f11615"/><path d="M 91.86 249.32 A 10.5 10.5 0 0 0 102.36 259.82 L 102.36 249.32L91.86 249.32" fill="#2c4861"/><rect x="107.60222222222222" y="238.82444444444442" width="20.995555555555555" height="20.995555555555555" fill="#293c65"/><rect x="107.6" y="238.82" width="10.5" height="10.5" fill="#ef1716"/><path d="M 107.6 238.82 A 10.5 10.5 0 0 1 118.1 249.32 L 107.6 249.32L107.6 238.82" fill="#367151"/><rect x="118.1" y="238.82" width="10.5" height="10.5" fill="#3b8749"/><path d="M 118.1 249.32 A 10.5 10.5 0 0 1  128.6 238.82 L 128.6 249.32L118.1 249.32" fill="#4ac234"/><rect x="107.6" y="249.32" width="10.5" height="10.5" fill="#44ab3c"/><path d="M 107.6 259.82 A 10.5 10.5 0 0 0 118.1 249.32 L 107.6 249.32L107.6 259.82" fill="#d41c21"/><rect x="118.1" y="249.32" width="10.5" height="10.5" fill="#51df29"/><path d="M 118.1 249.32 A 10.5 10.5 0 0 0 128.6 259.82 L 128.6 249.32L118.1 249.32" fill="#387a4e"/><rect x="133.85" y="238.82" width="21" height="21" fill="#4ccd30"/><rect x="133.85" y="238.82" width="21" height="21" fill="#3f385c"/><rect x="2.62" y="265.07" width="21" height="21" fill="#64314d"/><path d="M 2.62 265.07 A 21 21 0 0 1 23.62 286.07 L 2.62 286.07L2.62 265.07" fill="#ba212b"/><rect x="28.87" y="265.07" width="21" height="21" fill="#4dd02f"/><rect x="28.87" y="265.07" width="21" height="21" fill="#702f48"/><rect x="55.11333333333333" y="265.0688888888889" width="20.995555555555555" height="20.995555555555555" fill="#293c65"/><rect x="55.11" y="265.07" width="10.5" height="10.5" fill="#4ccb31"/><path d="M 55.11 275.57 A 10.5 10.5 0 0 1 65.61 265.07 L 65.61 267.695 A 7.875 7.875 0 0 0 57.735 275.57" fill="#305a5a"/><rect x="65.61" y="265.07" width="10.5" height="10.5" fill="#503556"/><path d="M 65.61 265.07 A 10.5 10.5 0 0 1 76.11 275.57 L 73.485 275.57 A 7.875 7.875 0 0 0 65.61 267.695" fill="#48bb37"/><rect x="55.11" y="275.57" width="10.5" height="10.5" fill="#bf2029"/><path d="M 55.11 275.57 A 10.5 10.5 0 0 0 65.61 286.07 L 65.61 283.445 A 7.875 7.875 0 0 1 57.735 275.57" fill="#2a3c65"/><rect x="65.61" y="275.57" width="10.5" height="10.5" fill="#5c3250"/><path d="M 65.61 286.07 A 10.5 10.5 0 0 0 76.11 275.57 L 73.485 275.57 A 7.875 7.875 0 0 1 65.61 283.445" fill="#3d8d47"/><rect x="81.36" y="265.07" width="21" height="21" fill="#38794e"/><path d="M 81.36 265.07 A 21 21 0 0 1 102.36 286.07 L 81.36 286.07L81.36 265.07" fill="#2f545c"/><rect x="107.6" y="265.07" width="21" height="21" fill="#4dd02f"/><rect x="107.6" y="265.07" width="21" height="21" fill="#293e64"/><rect x="133.84666666666666" y="265.0688888888889" width="20.995555555555555" height="20.995555555555555" fill="#293c65"/><rect x="133.85" y="265.07" width="10.5" height="10.5" fill="#493658"/><circle cx="139.1" cy="270.32" r="5.25" fill="#377650"/><rect x="144.34" y="265.07" width="10.5" height="10.5" fill="#46b539"/><rect x="144.34" y="265.07" width="10.5" height="10.5" fill="#f81513"/><rect x="133.85" y="275.57" width="10.5" height="10.5" fill="#62314e"/><circle cx="139.1" cy="280.82" r="5.25" fill="#2a3f64"/><rect x="144.34" y="275.57" width="10.5" height="10.5" fill="#762d46"/><rect x="144.34" y="275.57" width="10.5" height="10.5" fill="#493658"/><rect x="2.62" y="291.31" width="21" height="21" fill="#4c3557"/><polygon points="23.62,291.31 23.62,312.31 2.62,312.31" fill="#293d65"/><rect x="28.87" y="291.31" width="21" height="21" fill="#51e129"/><rect x="28.87" y="291.31" width="21" height="21" fill="#45ae3b"/><rect x="55.11333333333333" y="291.31333333333333" width="20.995555555555555" height="20.995555555555555" fill="#293c65"/><rect x="55.11" y="291.31" width="10.5" height="10.5" fill="#2c3b64"/><polygon points="65.61,291.31 65.61,301.81 55.11,301.81" fill="#6f2f49"/><rect x="65.61" y="291.31" width="10.5" height="10.5" fill="#48bc36"/><polygon points="65.61,291.31 76.11,291.31 65.61,301.81" fill="#315c59"/><rect x="55.11" y="301.81" width="10.5" height="10.5" fill="#49bd36"/><polygon points="55.11,301.81 65.61,301.81 65.61,312.31" fill="#9e2636"/><rect x="65.61" y="301.81" width="10.5" height="10.5" fill="#4ac234"/><polygon points="65.61,301.81 76.11,312.31 65.61,312.31" fill="#336456"/><rect x="81.36" y="291.31" width="21" height="21" fill="#397c4d"/><rect x="81.36" y="291.31" width="21" height="21" fill="#30585b"/><rect x="107.60222222222222" y="291.31333333333333" width="20.995555555555555" height="20.995555555555555" fill="#293c65"/><rect x="107.6" y="291.31" width="10.5" height="10.5" fill="#6c2f4a"/><path d="M 107.6 291.31 A 10.5 10.5 0 0 1 118.1 301.81 L 107.6 301.81L107.6 291.31" fill="#326357"/><rect x="118.1" y="291.31" width="10.5" height="10.5" fill="#49bf35"/><path d="M 118.1 301.81 A 10.5 10.5 0 0 1  128.6 291.31 L 128.6 301.81L118.1 301.81" fill="#6e2f4a"/><rect x="107.6" y="301.81" width="10.5" height="10.5" fill="#377650"/><path d="M 107.6 312.31 A 10.5 10.5 0 0 0 118.1 301.81 L 107.6 301.81L107.6 312.31" fill="#315c59"/><rect x="118.1" y="301.81" width="10.5" height="10.5" fill="#94283a"/><path d="M 118.1 301.81 A 10.5 10.5 0 0 0 128.6 312.31 L 128.6 301.81L118.1 301.81" fill="#50da2b"/><rect x="133.84666666666666" y="291.31333333333333" width="20.995555555555555" height="20.995555555555555" fill="#293c65"/><rect x="133.85" y="291.31" width="10.5" height="10.5" fill="#9b2737"/><polygon points="144.35,291.31 144.35,301.81 133.85,301.81" fill="#b4222e"/><rect x="144.34" y="291.31" width="10.5" height="10.5" fill="#63314e"/><polygon points="144.34,291.31 154.84,301.81 144.34,301.81" fill="#503555"/><rect x="133.85" y="301.81" width="10.5" height="10.5" fill="#2a4263"/><polygon points="133.85,301.81 144.35,301.81 144.35,312.31" fill="#346855"/><rect x="144.34" y="301.81" width="10.5" height="10.5" fill="#30585b"/><polygon points="144.34,301.81 154.84,301.81 144.34,312.31" fill="#356f52"/><rect x="2.6244444444444444" y="317.5577777777778" width="20.995555555555555" height="20.995555555555555" fill="#293c65"/><rect x="2.62" y="317.56" width="10.5" height="10.5" fill="#41375b"/><path d="M 2.62 317.56 A 10.5 10.5 0 0 1 13.120000000000001 328.06 L 2.62 328.06L2.62 317.56" fill="#6d2f4a"/><rect x="13.12" y="317.56" width="10.5" height="10.5" fill="#30585b"/><path d="M 13.12 328.06 A 10.5 10.5 0 0 1  23.619999999999997 317.56 L 23.619999999999997 328.06L13.12 328.06" fill="#326257"/><rect x="2.62" y="328.06" width="10.5" height="10.5" fill="#293e64"/><path d="M 2.62 338.56 A 10.5 10.5 0 0 0 13.120000000000001 328.06 L 2.62 328.06L2.62 338.56" fill="#4dd02f"/><rect x="13.12" y="328.06" width="10.5" height="10.5" fill="#b8212c"/><path d="M 13.12 328.06 A 10.5 10.5 0 0 0 23.619999999999997 338.56 L 23.619999999999997 328.06L13.12 328.06" fill="#4f3556"/><rect x="28.87" y="317.56" width="21" height="21" fill="#313a62"/><path d="M 28.87 317.56 A 21 21 0 0 1  49.870000000000005 338.56 L 28.87 317.56 A 21 21 0 0 0 49.870000000000005 338.56" fill="#9a2738"/><rect x="55.11" y="317.56" width="21" height="21" fill="#4ac333"/><rect x="55.11" y="317.56" width="21" height="21" fill="#4dd12e"/><rect x="81.36" y="317.56" width="21" height="21" fill="#4ac333"/><rect x="81.36" y="317.56" width="21" height="21" fill="#ba212b"/><rect x="107.60222222222222" y="317.5577777777778" width="20.995555555555555" height="20.995555555555555" fill="#293c65"/><rect x="107.6" y="317.56" width="10.5" height="10.5" fill="#2b4662"/><path d="M 107.6 328.06 A 10.5 10.5 0 0 0 118.1 317.56 L 107.6 317.56L107.6 328.06" fill="#2f535d"/><rect x="118.1" y="317.56" width="10.5" height="10.5" fill="#53e826"/><path d="M 118.1 317.56 A 10.5 10.5 0 0 0 128.6 328.06 L 128.6 317.56L118.1 317.56" fill="#38794f"/><rect x="107.6" y="328.06" width="10.5" height="10.5" fill="#3c395e"/><path d="M 107.6 328.06 A 10.5 10.5 0 0 1 118.1 338.56 L 107.6 338.56L107.6 328.06" fill="#ae2330"/><rect x="118.1" y="328.06" width="10.5" height="10.5" fill="#9f2636"/><path d="M 118.1 338.56 A 10.5 10.5 0 0 1  128.6 328.06 L 128.6 338.56L118.1 338.56" fill="#aa2432"/><rect x="133.84666666666666" y="317.5577777777778" width="20.995555555555555" height="20.995555555555555" fill="#293c65"/><rect x="133.85" y="317.56" width="10.5" height="10.5" fill="#3a804c"/><path d="M 133.85 317.56 A 10.5 10.5 0 0 1 144.35 328.06 L 133.85 328.06L133.85 317.56" fill="#3a834b"/><rect x="144.34" y="317.56" width="10.5" height="10.5" fill="#3d8d47"/><path d="M 144.34 328.06 A 10.5 10.5 0 0 1  154.84 317.56 L 154.84 328.06L144.34 328.06" fill="#3d8e47"/><rect x="133.85" y="328.06" width="10.5" height="10.5" fill="#eb1818"/><path d="M 133.85 338.56 A 10.5 10.5 0 0 0 144.35 328.06 L 133.85 328.06L133.85 338.56" fill="#4c3557"/><rect x="144.34" y="328.06" width="10.5" height="10.5" fill="#48bb36"/><path d="M 144.34 328.06 A 10.5 10.5 0 0 0 154.84 338.56 L 154.84 328.06L144.34 328.06" fill="#6d2f4a"/><rect x="2.6244444444444444" y="343.8022222222222" width="20.995555555555555" height="20.995555555555555" fill="#293c65"/><rect x="2.62" y="343.8" width="10.5" height="10.5" fill="#409b42"/><circle cx="7.87" cy="349.05" r="5.25" fill="#712f48"/><rect x="13.12" y="343.8" width="10.5" height="10.5" fill="#b4222d"/><rect x="13.12" y="343.8" width="10.5" height="10.5" fill="#377450"/><rect x="2.62" y="354.3" width="10.5" height="10.5" fill="#6e2f49"/><circle cx="7.87" cy="359.55" r="5.25" fill="#38794f"/><rect x="13.12" y="354.3" width="10.5" height="10.5" fill="#2a4163"/><rect x="13.12" y="354.3" width="10.5" height="10.5" fill="#4ac134"/><rect x="28.87" y="343.8" width="21" height="21" fill="#377650"/><polygon points="28.87,343.8 49.870000000000005,364.8 28.87,364.8" fill="#2c4761"/><rect x="55.11" y="343.8" width="21" height="21" fill="#dc1a1e"/><path d="M 55.11 364.8 A 21 21 0 0 0 76.11 343.8 L 55.11 343.8L55.11 364.8" fill="#2c4a60"/><rect x="81.35777777777778" y="343.8022222222222" width="20.995555555555555" height="20.995555555555555" fill="#293c65"/><rect x="81.36" y="343.8" width="10.5" height="10.5" fill="#4dcf2f"/><path d="M 81.36 343.8 A 10.5 10.5 0 0 0 91.86 354.3 L 91.86 343.8L81.36 343.8" fill="#f01716"/><rect x="91.86" y="343.8" width="10.5" height="10.5" fill="#326058"/><path d="M 91.86 354.3 A 10.5 10.5 0 0 0 102.36 343.8 L 91.86 343.8L91.86 354.3" fill="#b8212c"/><rect x="81.36" y="354.3" width="10.5" height="10.5" fill="#3f9544"/><path d="M 81.36 364.8 A 10.5 10.5 0 0 1  91.86 354.3 L 91.86 364.8L81.36 364.8" fill="#38794f"/><rect x="91.86" y="354.3" width="10.5" height="10.5" fill="#842b41"/><path d="M 91.86 354.3 A 10.5 10.5 0 0 1 102.36 364.8 L 91.86 364.8L91.86 354.3" fill="#c11f28"/><rect x="107.6" y="343.8" width="21" height="21" fill="#44ab3c"/><polygon points="107.6,343.8 128.6,364.8 107.6,364.8" fill="#46b539"/><rect x="133.84666666666666" y="343.8022222222222" width="20.995555555555555" height="20.995555555555555" fill="#293c65"/><rect x="133.85" y="343.8" width="10.5" height="10.5" fill="#419e41"/><path d="M 133.85 343.8 A 10.5 10.5 0 0 0 144.35 354.3 L 144.35 343.8L133.85 343.8" fill="#44a93d"/><rect x="144.34" y="343.8" width="10.5" height="10.5" fill="#4f3556"/><path d="M 144.34 354.3 A 10.5 10.5 0 0 0 154.84 343.8 L 144.34 343.8L144.34 354.3" fill="#e3191b"/><rect x="133.85" y="354.3" width="10.5" height="10.5" fill="#52e527"/><path d="M 133.85 364.8 A 10.5 10.5 0 0 1  144.35 354.3 L 144.35 364.8L133.85 364.8" fill="#bc202a"/><rect x="144.34" y="354.3" width="10.5" height="10.5" fill="#de1a1d"/><path d="M 144.34 354.3 A 10.5 10.5 0 0 1 154.84 364.8 L 144.34 364.8L144.34 354.3" fill="#356c53"/><rect x="2.62" y="370.05" width="21" height="21" fill="#852b40"/><rect x="2.62" y="370.05" width="21" height="21" fill="#45375a"/><rect x="28.87" y="370.05" width="21" height="21" fill="#336656"/><path d="M 28.87 391.05 A 21 21 0 0 1  49.870000000000005 370.05 L 49.870000000000005 391.05L28.87 391.05" fill="#315d59"/><rect x="55.11" y="370.05" width="21" height="21" fill="#47b638"/><rect x="55.11" y="370.05" width="21" height="21" fill="#30585b"/><rect x="81.36" y="370.05" width="21" height="21" fill="#2d4c5f"/><path d="M 81.36 391.05 A 21 21 0 0 0 102.36 370.05 L 81.36 370.05L81.36 391.05" fill="#48bc36"/><rect x="107.6" y="370.05" width="21" height="21" fill="#a52534"/><path d="M 107.6 370.05 A 21 21 0 0 0 128.6 391.05 L 128.6 370.05L107.6 370.05" fill="#2d4d5f"/><rect x="133.84666666666666" y="370.0466666666667" width="20.995555555555555" height="20.995555555555555" fill="#293c65"/><rect x="133.85" y="370.05" width="10.5" height="10.5" fill="#7a2d45"/><path d="M 133.85 380.55 A 10.5 10.5 0 0 1  144.35 370.05 L 144.35 380.55L133.85 380.55" fill="#e71819"/><rect x="144.34" y="370.05" width="10.5" height="10.5" fill="#3f385c"/><path d="M 144.34 370.05 A 10.5 10.5 0 0 1 154.84 380.55 L 144.34 380.55L144.34 370.05" fill="#53e627"/><rect x="133.85" y="380.54" width="10.5" height="10.5" fill="#d01d22"/><path d="M 133.85 380.54 A 10.5 10.5 0 0 0 144.35 391.04 L 144.35 380.54L133.85 380.54" fill="#61324f"/><rect x="144.34" y="380.54" width="10.5" height="10.5" fill="#772d46"/><path d="M 144.34 391.04 A 10.5 10.5 0 0 0 154.84 380.54 L 144.34 380.54L144.34 391.04" fill="#752e47"/><rect x="2.6244444444444444" y="396.2911111111111" width="20.995555555555555" height="20.995555555555555" fill="#293c65"/><rect x="2.62" y="396.29" width="10.5" height="10.5" fill="#2b4363"/><path d="M 2.62 406.79 A 10.5 10.5 0 0 1 13.120000000000001 396.29 L 13.120000000000001 398.915 A 7.875 7.875 0 0 0 5.245 406.79" fill="#2e3b63"/><rect x="13.12" y="396.29" width="10.5" height="10.5" fill="#fe1410"/><path d="M 13.12 396.29 A 10.5 10.5 0 0 1 23.619999999999997 406.79 L 20.994999999999997 406.79 A 7.875 7.875 0 0 0 13.12 398.915" fill="#336456"/><rect x="2.62" y="406.79" width="10.5" height="10.5" fill="#4ccb31"/><path d="M 2.62 406.79 A 10.5 10.5 0 0 0 13.120000000000001 417.29 L 13.120000000000001 414.665 A 7.875 7.875 0 0 1 5.245 406.79" fill="#68304c"/><rect x="13.12" y="406.79" width="10.5" height="10.5" fill="#573353"/><path d="M 13.12 417.29 A 10.5 10.5 0 0 0 23.619999999999997 406.79 L 20.994999999999997 406.79 A 7.875 7.875 0 0 1 13.12 414.665" fill="#992738"/><rect x="28.87" y="396.29" width="21" height="21" fill="#40385c"/><polygon points="28.87,396.29 49.870000000000005,396.29 28.87,417.29" fill="#42a43f"/><rect x="55.11" y="396.29" width="21" height="21" fill="#409b42"/><polygon points="55.11,396.29 76.11,417.29 55.11,417.29" fill="#3f9843"/><rect x="81.35777777777778" y="396.2911111111111" width="20.995555555555555" height="20.995555555555555" fill="#293c65"/><rect x="81.36" y="396.29" width="10.5" height="10.5" fill="#4fd82c"/><path d="M 81.36 406.79 A 10.5 10.5 0 0 0 91.86 396.29 L 81.36 396.29L81.36 406.79" fill="#44ab3c"/><rect x="91.86" y="396.29" width="10.5" height="10.5" fill="#8d293d"/><path d="M 91.86 396.29 A 10.5 10.5 0 0 0 102.36 406.79 L 102.36 396.29L91.86 396.29" fill="#44ab3c"/><rect x="81.36" y="406.79" width="10.5" height="10.5" fill="#3d8f47"/><path d="M 81.36 406.79 A 10.5 10.5 0 0 1 91.86 417.29 L 81.36 417.29L81.36 406.79" fill="#4bc633"/><rect x="91.86" y="406.79" width="10.5" height="10.5" fill="#3d8f47"/><path d="M 91.86 417.29 A 10.5 10.5 0 0 1  102.36 406.79 L 102.36 417.29L91.86 417.29" fill="#43a53f"/><rect x="107.6" y="396.29" width="21" height="21" fill="#a32534"/><rect x="107.6" y="396.29" width="21" height="21" fill="#7e2c43"/><rect x="133.85" y="396.29" width="21" height="21" fill="#37395f"/><path d="M 133.85 396.29 A 21 21 0 0 0 154.85 417.29 L 154.85 396.29L133.85 396.29" fill="#44375a"/><rect x="2.62" y="422.54" width="21" height="21" fill="#356e53"/><polygon points="2.62,422.54 23.62,443.54 2.62,443.54" fill="#d61c20"/><rect x="28.87" y="422.54" width="21" height="21" fill="#44aa3d"/><path d="M 28.87 422.54 A 21 21 0 0 1 49.870000000000005 443.54 L 28.87 443.54L28.87 422.54" fill="#ae2330"/><rect x="55.11333333333333" y="422.53555555555556" width="20.995555555555555" height="20.995555555555555" fill="#293c65"/><rect x="55.11" y="422.54" width="10.5" height="10.5" fill="#702f49"/><polygon points="65.61,422.54 65.61,433.04 55.11,433.04" fill="#2c4a60"/><rect x="65.61" y="422.54" width="10.5" height="10.5" fill="#39395e"/><polygon points="65.61,422.54 76.11,433.04 65.61,433.04" fill="#346755"/><rect x="55.11" y="433.03" width="10.5" height="10.5" fill="#315d59"/><polygon points="55.11,433.03 65.61,433.03 65.61,443.53" fill="#4ed32e"/><rect x="65.61" y="433.03" width="10.5" height="10.5" fill="#377451"/><polygon points="65.61,433.03 76.11,433.03 65.61,443.53" fill="#c51f27"/><rect x="81.36" y="422.54" width="21" height="21" fill="#f61513"/><polygon points="81.36,422.54 102.36,443.54 81.36,443.54" fill="#2c4761"/><rect x="107.6" y="422.54" width="21" height="21" fill="#b3222e"/><path d="M 107.6 443.54 A 21 21 0 0 0 128.6 422.54 L 107.6 422.54L107.6 443.54" fill="#377550"/><rect x="133.84666666666666" y="422.53555555555556" width="20.995555555555555" height="20.995555555555555" fill="#293c65"/><rect x="133.85" y="422.54" width="10.5" height="10.5" fill="#bc202a"/><polygon points="144.35,422.54 144.35,433.04 133.85,433.04" fill="#5b3351"/><rect x="144.34" y="422.54" width="10.5" height="10.5" fill="#315e59"/><polygon points="144.34,422.54 154.84,433.04 144.34,433.04" fill="#3b844a"/><rect x="133.85" y="433.03" width="10.5" height="10.5" fill="#409943"/><polygon points="133.85,433.03 144.35,433.03 144.35,443.53" fill="#fb1511"/><rect x="144.34" y="433.03" width="10.5" height="10.5" fill="#762d46"/><polygon points="144.34,433.03 154.84,433.03 144.34,443.53" fill="#3a814c"/><rect x="2.6244444444444444" y="448.78000000000003" width="20.995555555555555" height="20.995555555555555" fill="#293c65"/><rect x="2.62" y="448.78" width="10.5" height="10.5" fill="#573352"/><path d="M 2.62 459.28 A 10.5 10.5 0 0 0 13.120000000000001 448.78 L 2.62 448.78L2.62 459.28" fill="#95283a"/><rect x="13.12" y="448.78" width="10.5" height="10.5" fill="#30585b"/><path d="M 13.12 448.78 A 10.5 10.5 0 0 0 23.619999999999997 459.28 L 23.619999999999997 448.78L13.12 448.78" fill="#af2330"/><rect x="2.62" y="459.28" width="10.5" height="10.5" fill="#44ac3c"/><path d="M 2.62 459.28 A 10.5 10.5 0 0 1 13.120000000000001 469.78 L 2.62 469.78L2.62 459.28" fill="#346855"/><rect x="13.12" y="459.28" width="10.5" height="10.5" fill="#4ccc30"/><path d="M 13.12 469.78 A 10.5 10.5 0 0 1  23.619999999999997 459.28 L 23.619999999999997 469.78L13.12 469.78" fill="#5e3250"/><rect x="28.87" y="448.78" width="21" height="21" fill="#3f9544"/><polygon points="28.87,448.78 49.870000000000005,469.78 28.87,469.78" fill="#4dce2f"/><rect x="55.11333333333333" y="448.78000000000003" width="20.995555555555555" height="20.995555555555555" fill="#293c65"/><rect x="55.11" y="448.78" width="10.5" height="10.5" fill="#377550"/><path d="M 55.11 459.28 A 10.5 10.5 0 0 0 65.61 448.78 L 55.11 448.78L55.11 459.28" fill="#4ed52d"/><rect x="65.61" y="448.78" width="10.5" height="10.5" fill="#e5191a"/><path d="M 65.61 448.78 A 10.5 10.5 0 0 0 76.11 459.28 L 76.11 448.78L65.61 448.78" fill="#3b874a"/><rect x="55.11" y="459.28" width="10.5" height="10.5" fill="#377650"/><path d="M 55.11 459.28 A 10.5 10.5 0 0 1 65.61 469.78 L 55.11 469.78L55.11 459.28" fill="#872a3f"/><rect x="65.61" y="459.28" width="10.5" height="10.5" fill="#47b738"/><path d="M 65.61 469.78 A 10.5 10.5 0 0 1  76.11 459.28 L 76.11 469.78L65.61 469.78" fill="#50dd2a"/><rect x="81.36" y="448.78" width="21" height="21" fill="#cc1d24"/><rect x="81.36" y="448.78" width="21" height="21" fill="#cd1d23"/><rect x="107.6" y="448.78" width="21" height="21" fill="#6a304b"/><path d="M 107.6 448.78 A 21 21 0 0 0 128.6 469.78 L 128.6 448.78L107.6 448.78" fill="#409b42"/><rect x="133.84666666666666" y="448.78000000000003" width="20.995555555555555" height="20.995555555555555" fill="#293c65"/><rect x="133.85" y="448.78" width="10.5" height="10.5" fill="#4ac134"/><path d="M 133.85 459.28 A 10.5 10.5 0 0 1  144.35 448.78 L 144.35 459.28L133.85 459.28" fill="#51df29"/><rect x="144.34" y="448.78" width="10.5" height="10.5" fill="#463759"/><path d="M 144.34 448.78 A 10.5 10.5 0 0 1 154.84 459.28 L 144.34 459.28L144.34 448.78" fill="#45ae3b"/><rect x="133.85" y="459.28" width="10.5" height="10.5" fill="#64314d"/><path d="M 133.85 459.28 A 10.5 10.5 0 0 0 144.35 469.78 L 144.35 459.28L133.85 459.28" fill="#3b8749"/><rect x="144.34" y="459.28" width="10.5" height="10.5" fill="#ce1d23"/><path d="M 144.34 469.78 A 10.5 10.5 0 0 0 154.84 459.28 L 144.34 459.28L144.34 469.78" fill="#2a4063"/></g></svg>