<?xml version="1.0" standalone="no"?><svg xmlns:xlink="http://www.w3.org/1999/xlink" xmlns="http://www.w3.org/2000/svg" viewBox="0 0 1000 1500.0396919901564" preserveAspectRatio="xMaxYMax slice"><g transform="scale(3.1753592125109154)"><rect x="0" y="0" width="314.93333333333334" height="472.4" fill="#293c65"/><rect x="5.25" y="5.25" width="41.99" height="41.99" fill="#842b41"/><polygon points="5.25,5.25 47.24,5.25 5.25,47.24" fill="#d51c20"/><rect x="57.73777777777778" y="5.248888888888889" width="41.99111111111111" height="41.99111111111111" fill="#293c65"/><rect x="57.74" y="5.25" width="21" height="21" fill="#38784f"/><path d="M 57.74 5.25 A 21 21 0 0 0 78.74000000000001 26.25 L 78.74000000000001 5.25L57.74 5.25" fill="#eb1818"/><rect x="78.73" y="5.25" width="21" height="21" fill="#f21615"/><path d="M 78.73 26.25 A 21 21 0 0 0 99.73 5.25 L 78.73 5.25L78.73 26.25" fill="#563453"/><rect x="57.74" y="26.24" width="21" height="21" fill="#64314e"/><path d="M 57.74 47.239999999999995 A 21 21 0 0 1  78.74000000000001 26.24 L 78.74000000000001 47.239999999999995L57.74 47.239999999999995" fill="#4bc732"/><rect x="78.73" y="26.24" width="21" height="21" fill="#3a824b"/><path d="M 78.73 26.24 A 21 21 0 0 1 99.73 47.239999999999995 L 78.73 47.239999999999995L78.73 26.24" fill="#b6222d"/><rect x="110.22666666666666" y="5.248888888888889" width="41.99111111111111" height="41.99111111111111" fill="#293c65"/><rect x="110.23" y="5.25" width="21" height="21" fill="#b8212c"/><path d="M 110.23 5.25 A 21 21 0 0 1 131.23000000000002 26.25 L 110.23 26.25L110.23 5.25" fill="#419c42"/><rect x="131.22" y="5.25" width="21" height="21" fill="#313b62"/><path d="M 131.22 26.25 A 21 21 0 0 1  152.22 5.25 L 152.22 26.25L131.22 26.25" fill="#3d8c48"/><rect x="110.23" y="26.24" width="21" height="21" fill="#4bc633"/><path d="M 110.23 47.239999999999995 A 21 21 0 0 0 131.23000000000002 26.24 L 110.23 26.24L110.23 47.239999999999995" fill="#4dcd30"/><rect x="131.22" y="26.24" width="21" height="21" fill="#4d3557"/><path d="M 131.22 26.24 A 21 21 0 0 0 152.22 47.239999999999995 L 152.22 26.24L131.22 26.24" fill="#9a2738"/><rect x="162.71555555555557" y="5.248888888888889" width="41.99111111111111" height="41.99111111111111" fill="#293c65"/><rect x="162.72" y="5.25" width="21" height="21" fill="#41375b"/><polygon points="183.72,5.25 183.72,26.25 162.72,26.25" fill="#f81512"/><rect x="183.71" y="5.25" width="21" height="21" fill="#712e48"/><polygon points="183.71,5.25 204.71,26.25 183.71,26.25" fill="#702f49"/><rect x="162.72" y="26.24" width="21" height="21" fill="#4ed42d"/><polygon points="162.72,26.24 183.72,26.24 162.72,47.239999999999995" fill="#47b838"/><rect x="183.71" y="26.24" width="21" height="21" fill="#fb1511"/><polygon points="183.71,26.24 204.71,26.24 204.71,47.239999999999995" fill="#c41f27"/><rect x="215.20444444444445" y="5.248888888888889" width="41.99111111111111" height="41.99111111111111" fill="#293c65"/><rect x="215.2" y="5.25" width="21" height="21" fill="#9f2636"/><path d="M 215.2 5.25 A 21 21 0 0 1 236.2 26.25 L 215.2 26.25L215.2 5.25" fill="#61324f"/><rect x="236.2" y="5.25" width="21" height="21" fill="#bf2029"/><path d="M 236.2 26.25 A 21 21 0 0 1  257.2 5.25 L 257.2 26.25L236.2 26.25" fill="#4ccd30"/><rect x="215.2" y="26.24" width="21" height="21" fill="#336755"/><path d="M 215.2 47.239999999999995 A 21 21 0 0 0 236.2 26.24 L 215.2 26.24L215.2 47.239999999999995" fill="#46b339"/><rect x="236.2" y="26.24" width="21" height="21" fill="#367251"/><path d="M 236.2 26.24 A 21 21 0 0 0 257.2 47.239999999999995 L 257.2 26.24L236.2 26.24" fill="#8b2a3e"/><rect x="267.6933333333333" y="5.248888888888889" width="41.99111111111111" height="41.99111111111111" fill="#293c65"/><rect x="267.69" y="5.25" width="21" height="21" fill="#722e48"/><path d="M 267.69 26.25 A 21 21 0 0 1  288.69 5.25 L 288.69 26.25L267.69 26.25" fill="#43a53f"/><rect x="288.69" y="5.25" width="21" height="21" fill="#9c2637"/><path d="M 288.69 5.25 A 21 21 0 0 1 309.69 26.25 L 288.69 26.25L288.69 5.25" fill="#c81e25"/><rect x="267.69" y="26.24" width="21" height="21" fill="#367052"/><path d="M 267.69 26.24 A 21 21 0 0 0 288.69 47.239999999999995 L 288.69 26.24L267.69 26.24" fill="#b7212c"/><rect x="288.69" y="26.24" width="21" height="21" fill="#48bb37"/><path d="M 288.69 47.239999999999995 A 21 21 0 0 0 309.69 26.24 L 288.69 26.24L288.69 47.239999999999995" fill="#892a3f"/><rect x="5.25" y="57.74" width="41.99" height="41.99" fill="#343a61"/><polygon points="5.25,57.74 47.24,99.73 5.25,99.73" fill="#3e9445"/><rect x="57.73777777777778" y="57.73777777777778" width="41.99111111111111" height="41.99111111111111" fill="#293c65"/><rect x="57.74" y="57.74" width="21" height="21" fill="#7f2c43"/><circle cx="68.24000000000001" cy="68.24000000000001" r="10.5" fill="#44ac3c"/><rect x="78.73" y="57.74" width="21" height="21" fill="#3b844a"/><rect x="78.73" y="57.74" width="21" height="21" fill="#c71e26"/><rect x="57.74" y="78.73" width="21" height="21" fill="#a62433"/><circle cx="68.24000000000001" cy="89.23" r="10.5" fill="#38395f"/><rect x="78.73" y="78.73" width="21" height="21" fill="#315b5a"/><rect x="78.73" y="78.73" width="21" height="21" fill="#45ad3c"/><rect x="110.22666666666666" y="57.73777777777778" width="41.99111111111111" height="41.99111111111111" fill="#293c65"/><rect x="110.23" y="57.74" width="21" height="21" fill="#7f2c43"/><circle cx="120.73" cy="68.24000000000001" r="10.5" fill="#48bb36"/><rect x="131.22" y="57.74" width="21" height="21" fill="#53e627"/><rect x="131.22" y="57.74" width="21" height="21" fill="#db1b1e"/><rect x="110.23" y="78.73" width="21" height="21" fill="#9d2637"/><circle cx="120.73" cy="89.23" r="10.5" fill="#f31614"/><rect x="131.22" y="78.73" width="21" height="21" fill="#3f9744"/><rect x="131.22" y="78.73" width="21" height="21" fill="#d61b20"/><rect x="162.72" y="57.74" width="41.99" height="41.99" fill="#315e59"/><rect x="162.72" y="57.74" width="41.99" height="41.99" fill="#f91512"/><rect x="215.20444444444445" y="57.73777777777778" width="41.99111111111111" height="41.99111111111111" fill="#293c65"/><rect x="215.2" y="57.74" width="21" height="21" fill="#50dc2b"/><path d="M 215.2 78.74000000000001 A 21 21 0 0 1 236.2 57.74 L 236.2 62.99 A 15.75 15.75 0 0 0 220.45 78.74000000000001" fill="#30595a"/><rect x="236.2" y="57.74" width="21" height="21" fill="#49c134"/><path d="M 236.2 57.74 A 21 21 0 0 1 257.2 78.74000000000001 L 251.95 78.74000000000001 A 15.75 15.75 0 0 0 236.2 62.99" fill="#367251"/><rect x="215.2" y="78.73" width="21" height="21" fill="#50dc2a"/><path d="M 215.2 78.73 A 21 21 0 0 0 236.2 99.73 L 236.2 94.48 A 15.75 15.75 0 0 1 220.45 78.73" fill="#4ed32e"/><rect x="236.2" y="78.73" width="21" height="21" fill="#2a3f64"/><path d="M 236.2 99.73 A 21 21 0 0 0 257.2 78.73 L 251.95 78.73 A 15.75 15.75 0 0 1 236.2 94.48" fill="#b5222d"/><rect x="267.69" y="57.74" width="41.99" height="41.99" fill="#42a43f"/><polygon points="267.69,57.74 309.68,57.74 267.69,99.73" fill="#44ac3c"/><rect x="5.248888888888889" y="110.22666666666666" width="41.99111111111111" height="41.99111111111111" fill="#293c65"/><rect x="5.25" y="110.23" width="21" height="21" fill="#a12635"/><path d="M 5.25 131.23000000000002 A 21 21 0 0 1  26.25 110.23 L 26.25 131.23000000000002L5.25 131.23000000000002" fill="#cc1d24"/><rect x="26.24" y="110.23" width="21" height="21" fill="#53e726"/><path d="M 26.24 110.23 A 21 21 0 0 1 47.239999999999995 131.23000000000002 L 26.24 131.23000000000002L26.24 110.23" fill="#2e515d"/><rect x="5.25" y="131.22" width="21" height="21" fill="#3e9046"/><path d="M 5.25 131.22 A 21 21 0 0 0 26.25 152.22 L 26.25 131.22L5.25 131.22" fill="#4ccb31"/><rect x="26.24" y="131.22" width="21" height="21" fill="#e6191a"/><path d="M 26.24 152.22 A 21 21 0 0 0 47.239999999999995 131.22 L 26.24 131.22L26.24 152.22" fill="#702f49"/><rect x="57.73777777777778" y="110.22666666666666" width="41.99111111111111" height="41.99111111111111" fill="#293c65"/><rect x="57.74" y="110.23" width="21" height="21" fill="#493658"/><polygon points="78.74000000000001,110.23 78.74000000000001,131.23000000000002 57.74,131.23000000000002" fill="#4dce30"/><rect x="78.73" y="110.23" width="21" height="21" fill="#842b41"/><polygon points="78.73,110.23 99.73,131.23000000000002 78.73,131.23000000000002" fill="#6a304b"/><rect x="57.74" y="131.22" width="21" height="21" fill="#5d3250"/><polygon points="57.74,131.22 78.74000000000001,131.22 57.74,152.22" fill="#4bc633"/><rect x="78.73" y="131.22" width="21" height="21" fill="#a62433"/><polygon points="78.73,131.22 99.73,131.22 99.73,152.22" fill="#305a5a"/><rect x="110.23" y="110.23" width="41.99" height="41.99" fill="#30595a"/><polygon points="110.23,110.23 152.22,110.23 152.22,152.22" fill="#48bd36"/><rect x="162.71555555555557" y="110.22666666666666" width="41.99111111111111" height="41.99111111111111" fill="#293c65"/><rect x="162.72" y="110.23" width="21" height="21" fill="#583352"/><polygon points="183.72,110.23 183.72,131.23000000000002 162.72,131.23000000000002" fill="#4fd82c"/><rect x="183.71" y="110.23" width="21" height="21" fill="#8e293d"/><polygon points="183.71,110.23 204.71,110.23 183.71,131.23000000000002" fill="#a02636"/><rect x="162.72" y="131.22" width="21" height="21" fill="#b4222d"/><polygon points="162.72,131.22 183.72,131.22 183.72,152.22" fill="#9e2636"/><rect x="183.71" y="131.22" width="21" height="21" fill="#44ac3c"/><polygon points="183.71,131.22 204.71,152.22 183.71,152.22" fill="#eb1717"/><rect x="215.2" y="110.23" width="41.99" height="41.99" fill="#3b864a"/><path d="M 215.2 110.23 A 41.99 41.99 0 0 0 257.19 152.22 L 257.19 110.23L215.2 110.23" fill="#397d4d"/><rect x="267.69" y="110.23" width="41.99" height="41.99" fill="#ec1717"/><rect x="267.69" y="110.23" width="41.99" height="41.99" fill="#8a2a3e"/><rect x="5.25" y="162.72" width="41.99" height="41.99" fill="#832b41"/><path d="M 5.25 162.72 A 41.99 41.99 0 0 0 47.24 204.71 L 47.24 162.72L5.25 162.72" fill="#9b2738"/><rect x="57.73777777777778" y="162.71555555555557" width="41.99111111111111" height="41.99111111111111" fill="#293c65"/><rect x="57.74" y="162.72" width="21" height="21" fill="#2c3c64"/><polygon points="78.74000000000001,162.72 78.74000000000001,183.72 57.74,183.72" fill="#4bc732"/><rect x="78.73" y="162.72" width="21" height="21" fill="#e61819"/><polygon points="78.73,162.72 99.73,183.72 78.73,183.72" fill="#2c3b64"/><rect x="57.74" y="183.71" width="21" height="21" fill="#e4191a"/><polygon points="57.74,183.71 78.74000000000001,183.71 78.74000000000001,204.71" fill="#2f555c"/><rect x="78.73" y="183.71" width="21" height="21" fill="#315d59"/><polygon points="78.73,183.71 99.73,183.71 78.73,204.71" fill="#67304c"/><rect x="110.22666666666666" y="162.71555555555557" width="41.99111111111111" height="41.99111111111111" fill="#293c65"/><rect x="110.23" y="162.72" width="21" height="21" fill="#50dd2a"/><path d="M 110.23 183.72 A 21 21 0 0 0 131.23000000000002 162.72 L 110.23 162.72L110.23 183.72" fill="#92283b"/><rect x="131.22" y="162.72" width="21" height="21" fill="#b1222f"/><path d="M 131.22 162.72 A 21 21 0 0 0 152.22 183.72 L 152.22 162.72L131.22 162.72" fill="#2a4163"/><rect x="110.23" y="183.71" width="21" height="21" fill="#2c4761"/><path d="M 110.23 183.71 A 21 21 0 0 1 131.23000000000002 204.71 L 110.23 204.71L110.23 183.71" fill="#3e9246"/><rect x="131.22" y="183.71" width="21" height="21" fill="#49c134"/><path d="M 131.22 204.71 A 21 21 0 0 1  152.22 183.71 L 152.22 204.71L131.22 204.71" fill="#563453"/><rect x="162.71555555555557" y="162.71555555555557" width="41.99111111111111" height="41.99111111111111" fill="#293c65"/><rect x="162.72" y="162.72" width="21" height="21" fill="#d71b20"/><path d="M 162.72 162.72 A 21 21 0 0 0 183.72 183.72 L 183.72 162.72L162.72 162.72" fill="#43a73e"/><rect x="183.71" y="162.72" width="21" height="21" fill="#315e58"/><path d="M 183.71 183.72 A 21 21 0 0 0 204.71 162.72 L 183.71 162.72L183.71 183.72" fill="#9b2737"/><rect x="162.72" y="183.71" width="21" height="21" fill="#3c385d"/><path d="M 162.72 204.71 A 21 21 0 0 1  183.72 183.71 L 183.72 204.71L162.72 204.71" fill="#293d65"/><rect x="183.71" y="183.71" width="21" height="21" fill="#d91b1f"/><path d="M 183.71 183.71 A 21 21 0 0 1 204.71 204.71 L 183.71 204.71L183.71 183.71" fill="#842b41"/><rect x="215.20444444444445" y="162.71555555555557" width="41.99111111111111" height="41.99111111111111" fill="#293c65"/><rect x="215.2" y="162.72" width="21" height="21" fill="#51e029"/><path d="M 215.2 183.72 A 21 21 0 0 1  236.2 162.72 L 236.2 183.72L215.2 183.72" fill="#48bd36"/><rect x="236.2" y="162.72" width="21" height="21" fill="#f51614"/><path d="M 236.2 162.72 A 21 21 0 0 1 257.2 183.72 L 236.2 183.72L236.2 162.72" fill="#7b2d44"/><rect x="215.2" y="183.71" width="21" height="21" fill="#ae2330"/><path d="M 215.2 183.71 A 21 21 0 0 0 236.2 204.71 L 236.2 183.71L215.2 183.71" fill="#c61f26"/><rect x="236.2" y="183.71" width="21" height="21" fill="#7f2c43"/><path d="M 236.2 204.71 A 21 21 0 0 0 257.2 183.71 L 236.2 183.71L236.2 204.71" fill="#4ac433"/><rect x="267.6933333333333" y="162.71555555555557" width="41.99111111111111" height="41.99111111111111" fill="#293c65"/><rect x="267.69" y="162.72" width="21" height="21" fill="#b2222e"/><polygon points="288.69,162.72 288.69,183.72 267.69,183.72" fill="#d41c21"/><rect x="288.69" y="162.72" width="21" height="21" fill="#6a304b"/><polygon points="288.69,162.72 309.69,183.72 288.69,183.72" fill="#c31f28"/><rect x="267.69" y="183.71" width="21" height="21" fill="#822b41"/><polygon points="267.69,183.71 288.69,183.71 267.69,204.71" fill="#c02029"/><rect x="288.69" y="183.71" width="21" height="21" fill="#3c8949"/><polygon points="288.69,183.71 309.69,183.71 309.69,204.71" fill="#3a824b"/><rect x="5.248888888888889" y="215.20444444444445" width="41.99111111111111" height="41.99111111111111" fill="#293c65"/><rect x="5.25" y="215.2" width="21" height="21" fill="#67304c"/><path d="M 5.25 215.2 A 21 21 0 0 1 26.25 236.2 L 5.25 236.2L5.25 215.2" fill="#46b439"/><rect x="26.24" y="215.2" width="21" height="21" fill="#de1a1d"/><path d="M 26.24 236.2 A 21 21 0 0 1  47.239999999999995 215.2 L 47.239999999999995 236.2L26.24 236.2" fill="#bf2029"/><rect x="5.25" y="236.2" width="21" height="21" fill="#c51f27"/><path d="M 5.25 257.2 A 21 21 0 0 0 26.25 236.2 L 5.25 236.2L5.25 257.2" fill="#b4222d"/><rect x="26.24" y="236.2" width="21" height="21" fill="#3d9046"/><path d="M 26.24 236.2 A 21 21 0 0 0 47.239999999999995 257.2 L 47.239999999999995 236.2L26.24 236.2" fill="#ec1717"/><rect x="57.74" y="215.2" width="41.99" height="41.99" fill="#4d3557"/><rect x="57.74" y="215.2" width="41.99" height="41.99" fill="#43375b"/><rect x="110.22666666666666" y="215.20444444444445" width="41.99111111111111" height="41.99111111111111" fill="#293c65"/><rect x="110.23" y="215.2" width="21" height="21" fill="#336456"/><path d="M 110.23 215.2 A 21 21 0 0 1 131.23000000000002 236.2 L 110.23 236.2L110.23 215.2" fill="#49c134"/><rect x="131.22" y="215.2" width="21" height="21" fill="#b4222e"/><path d="M 131.22 236.2 A 21 21 0 0 1  152.22 215.2 L 152.22 236.2L131.22 236.2" fill="#44a93d"/><rect x="110.23" y="236.2" width="21" height="21" fill="#2c3b64"/><path d="M 110.23 257.2 A 21 21 0 0 0 131.23000000000002 236.2 L 110.23 236.2L110.23 257.2" fill="#4ccc30"/><rect x="131.22" y="236.2" width="21" height="21" fill="#4b3658"/><path d="M 131.22 236.2 A 21 21 0 0 0 152.22 257.2 L 152.22 236.2L131.22 236.2" fill="#2f3b63"/><rect x="162.72" y="215.2" width="41.99" height="41.99" fill="#90293c"/><path d="M 162.72 215.2 A 41.99 41.99 0 0 0 204.71 257.19 L 204.71 215.2L162.72 215.2" fill="#3c8b48"/><rect x="215.20444444444445" y="215.20444444444445" width="41.99111111111111" height="41.99111111111111" fill="#293c65"/><rect x="215.2" y="215.2" width="21" height="21" fill="#4bc732"/><path d="M 215.2 215.2 A 21 21 0 0 0 236.2 236.2 L 236.2 215.2L215.2 215.2" fill="#f21615"/><rect x="236.2" y="215.2" width="21" height="21" fill="#3e9146"/><path d="M 236.2 236.2 A 21 21 0 0 0 257.2 215.2 L 236.2 215.2L236.2 236.2" fill="#5d3250"/><rect x="215.2" y="236.2" width="21" height="21" fill="#4b3657"/><path d="M 215.2 257.2 A 21 21 0 0 1  236.2 236.2 L 236.2 257.2L215.2 257.2" fill="#ed1717"/><rect x="236.2" y="236.2" width="21" height="21" fill="#419d41"/><path d="M 236.2 236.2 A 21 21 0 0 1 257.2 257.2 L 236.2 257.2L236.2 236.2" fill="#712e48"/><rect x="267.69" y="215.2" width="41.99" height="41.99" fill="#4dce30"/><path d="M 267.69 257.19 A 41.99 41.99 0 0 0 309.68 215.2 L 267.69 215.2L267.69 257.19" fill="#ac2331"/><rect x="5.248888888888889" y="267.6933333333333" width="41.99111111111111" height="41.99111111111111" fill="#293c65"/><rect x="5.25" y="267.69" width="21" height="21" fill="#4ac234"/><path d="M 5.25 267.69 A 21 21 0 0 1 26.25 288.69 L 5.25 288.69L5.25 267.69" fill="#c21f28"/><rect x="26.24" y="267.69" width="21" height="21" fill="#f51614"/><path d="M 26.24 288.69 A 21 21 0 0 1  47.239999999999995 267.69 L 47.239999999999995 288.69L26.24 288.69" fill="#7a2d45"/><rect x="5.25" y="288.69" width="21" height="21" fill="#3c8949"/><path d="M 5.25 309.69 A 21 21 0 0 0 26.25 288.69 L 5.25 288.69L5.25 309.69" fill="#336357"/><rect x="26.24" y="288.69" width="21" height="21" fill="#4c3557"/><path d="M 26.24 288.69 A 21 21 0 0 0 47.239999999999995 309.69 L 47.239999999999995 288.69L26.24 288.69" fill="#2a4063"/><rect x="57.73777777777778" y="267.6933333333333" width="41.99111111111111" height="41.99111111111111" fill="#293c65"/><rect x="57.74" y="267.69" width="21" height="21" fill="#3b844b"/><polygon points="78.74000000000001,267.69 78.74000000000001,288.69 57.74,288.69" fill="#387a4e"/><rect x="78.73" y="267.69" width="21" height="21" fill="#9c2637"/><polygon points="78.73,267.69 99.73,288.69 78.73,288.69" fill="#43a93d"/><rect x="57.74" y="288.69" width="21" height="21" fill="#c41f27"/><polygon points="57.74,288.69 78.74000000000001,288.69 57.74,309.69" fill="#419f41"/><rect x="78.73" y="288.69" width="21" height="21" fill="#4b3657"/><polygon points="78.73,288.69 99.73,288.69 99.73,309.69" fill="#47b638"/><rect x="110.22666666666666" y="267.6933333333333" width="41.99111111111111" height="41.99111111111111" fill="#293c65"/><rect x="110.23" y="267.69" width="21" height="21" fill="#2c4960"/><polygon points="131.23000000000002,267.69 131.23000000000002,288.69 110.23,288.69" fill="#513455"/><rect x="131.22" y="267.69" width="21" height="21" fill="#533454"/><polygon points="131.22,267.69 152.22,267.69 131.22,288.69" fill="#2b4562"/><rect x="110.23" y="288.69" width="21" height="21" fill="#732e47"/><polygon points="110.23,288.69 131.23000000000002,288.69 131.23000000000002,309.69" fill="#367251"/><rect x="131.22" y="288.69" width="21" height="21" fill="#3c8a49"/><polygon points="131.22,288.69 152.22,309.69 131.22,309.69" fill="#397e4d"/><rect x="162.71555555555557" y="267.6933333333333" width="41.99111111111111" height="41.99111111111111" fill="#293c65"/><rect x="162.72" y="267.69" width="21" height="21" fill="#367152"/><polygon points="183.72,267.69 183.72,288.69 162.72,288.69" fill="#f61513"/><rect x="183.71" y="267.69" width="21" height="21" fill="#533454"/><polygon points="183.71,267.69 204.71,288.69 183.71,288.69" fill="#397d4d"/><rect x="162.72" y="288.69" width="21" height="21" fill="#e01a1c"/><polygon points="162.72,288.69 183.72,288.69 183.72,309.69" fill="#42a040"/><rect x="183.71" y="288.69" width="21" height="21" fill="#45b03a"/><polygon points="183.71,288.69 204.71,288.69 183.71,309.69" fill="#2f555c"/><rect x="215.2" y="267.69" width="41.99" height="41.99" fill="#397c4e"/><rect x="215.2" y="267.69" width="41.99" height="41.99" fill="#30585b"/><rect x="267.69" y="267.69" width="41.99" height="41.99" fill="#a22535"/><rect x="267.69" y="267.69" width="41.99" height="41.99" fill="#822b41"/><rect x="5.25" y="320.18" width="41.99" height="41.99" fill="#2a4064"/><rect x="5.25" y="320.18" width="41.99" height="41.99" fill="#4ac333"/><rect x="57.73777777777778" y="320.1822222222222" width="41.99111111111111" height="41.99111111111111" fill="#293c65"/><rect x="57.74" y="320.18" width="21" height="21" fill="#46b439"/><polygon points="78.74000000000001,320.18 78.74000000000001,341.18 57.74,341.18" fill="#4bc832"/><rect x="78.73" y="320.18" width="21" height="21" fill="#346b54"/><polygon points="78.73,320.18 99.73,341.18 78.73,341.18" fill="#702f49"/><rect x="57.74" y="341.18" width="21" height="21" fill="#47b837"/><polygon points="57.74,341.18 78.74000000000001,341.18 78.74000000000001,362.18" fill="#94283a"/><rect x="78.73" y="341.18" width="21" height="21" fill="#4f3556"/><polygon points="78.73,341.18 99.73,341.18 78.73,362.18" fill="#2e505e"/><rect x="110.23" y="320.18" width="41.99" height="41.99" fill="#3d8c48"/><path d="M 110.23 320.18 A 41.99 41.99 0 0 1 152.22 362.17 L 110.23 362.17L110.23 320.18" fill="#343a61"/><rect x="162.71555555555557" y="320.1822222222222" width="41.99111111111111" height="41.99111111111111" fill="#293c65"/><rect x="162.72" y="320.18" width="21" height="21" fill="#377750"/><path d="M 162.72 320.18 A 21 21 0 0 0 183.72 341.18 L 183.72 320.18L162.72 320.18" fill="#ad2330"/><rect x="183.71" y="320.18" width="21" height="21" fill="#4ccc30"/><path d="M 183.71 341.18 A 21 21 0 0 0 204.71 320.18 L 183.71 320.18L183.71 341.18" fill="#46b439"/><rect x="162.72" y="341.18" width="21" height="21" fill="#722e48"/><path d="M 162.72 362.18 A 21 21 0 0 1  183.72 341.18 L 183.72 362.18L162.72 362.18" fill="#53e627"/><rect x="183.71" y="341.18" width="21" height="21" fill="#51df29"/><path d="M 183.71 341.18 A 21 21 0 0 1 204.71 362.18 L 183.71 362.18L183.71 341.18" fill="#45af3b"/><rect x="215.2" y="320.18" width="41.99" height="41.99" fill="#51e128"/><path d="M 215.2 320.18 A 41.99 41.99 0 0 1  257.19 362.17 L 215.2 320.18 A 41.99 41.99 0 0 0 257.19 362.17" fill="#44ad3c"/><rect x="267.6933333333333" y="320.1822222222222" width="41.99111111111111" height="41.99111111111111" fill="#293c65"/><rect x="267.69" y="320.18" width="21" height="21" fill="#64314e"/><path d="M 267.69 320.18 A 21 21 0 0 1 288.69 341.18 L 267.69 341.18L267.69 320.18" fill="#30585b"/><rect x="288.69" y="320.18" width="21" height="21" fill="#2c4960"/><path d="M 288.69 341.18 A 21 21 0 0 1  309.69 320.18 L 309.69 341.18L288.69 341.18" fill="#96283a"/><rect x="267.69" y="341.18" width="21" height="21" fill="#e01a1c"/><path d="M 267.69 362.18 A 21 21 0 0 0 288.69 341.18 L 267.69 341.18L267.69 362.18" fill="#68304c"/><rect x="288.69" y="341.18" width="21" height="21" fill="#ed1717"/><path d="M 288.69 341.18 A 21 21 0 0 0 309.69 362.18 L 309.69 341.18L288.69 341.18" fill="#f51614"/><rect x="5.248888888888889" y="372.6711111111111" width="41.99111111111111" height="41.99111111111111" fill="#293c65"/><rect x="5.25" y="372.67" width="21" height="21" fill="#4dd12f"/><path d="M 5.25 372.67 A 21 21 0 0 1 26.25 393.67 L 5.25 393.67L5.25 372.67" fill="#62314e"/><rect x="26.24" y="372.67" width="21" height="21" fill="#8d293d"/><path d="M 26.24 393.67 A 21 21 0 0 1  47.239999999999995 372.67 L 47.239999999999995 393.67L26.24 393.67" fill="#53e726"/><rect x="5.25" y="393.67" width="21" height="21" fill="#51de2a"/><path d="M 5.25 414.67 A 21 21 0 0 0 26.25 393.67 L 5.25 393.67L5.25 414.67" fill="#47b838"/><rect x="26.24" y="393.67" width="21" height="21" fill="#c31f27"/><path d="M 26.24 393.67 A 21 21 0 0 0 47.239999999999995 414.67 L 47.239999999999995 393.67L26.24 393.67" fill="#2e515d"/><rect x="57.73777777777778" y="372.6711111111111" width="41.99111111111111" height="41.99111111111111" fill="#293c65"/><rect x="57.74" y="372.67" width="21" height="21" fill="#5d3250"/><polygon points="78.74000000000001,372.67 78.74000000000001,393.67 57.74,393.67" fill="#2e525d"/><rect x="78.73" y="372.67" width="21" height="21" fill="#326257"/><polygon points="78.73,372.67 99.73,393.67 78.73,393.67" fill="#356f52"/><rect x="57.74" y="393.67" width="21" height="21" fill="#49c035"/><polygon points="57.74,393.67 78.74000000000001,393.67 78.74000000000001,414.67" fill="#52e328"/><rect x="78.73" y="393.67" width="21" height="21" fill="#4fd82c"/><polygon points="78.73,393.67 99.73,393.67 78.73,414.67" fill="#3e385d"/><rect x="110.23" y="372.67" width="41.99" height="41.99" fill="#387b4e"/><path d="M 110.23 414.66 A 41.99 41.99 0 0 0 152.22 372.67 L 110.23 372.67L110.23 414.66" fill="#ad2330"/><rect x="162.72" y="372.67" width="41.99" height="41.99" fill="#41375b"/><rect x="162.72" y="372.67" width="41.99" height="41.99" fill="#30595a"/><rect x="215.20444444444445" y="372.6711111111111" width="41.99111111111111" height="41.99111111111111" fill="#293c65"/><rect x="215.2" y="372.67" width="21" height="21" fill="#db1b1e"/><path d="M 215.2 372.67 A 21 21 0 0 1 236.2 393.67 L 215.2 393.67L215.2 372.67" fill="#44aa3d"/><rect x="236.2" y="372.67" width="21" height="21" fill="#8d293d"/><path d="M 236.2 393.67 A 21 21 0 0 1  257.2 372.67 L 257.2 393.67L236.2 393.67" fill="#419d41"/><rect x="215.2" y="393.67" width="21" height="21" fill="#5a3351"/><path d="M 215.2 414.67 A 21 21 0 0 0 236.2 393.67 L 215.2 393.67L215.2 414.67" fill="#6a304b"/><rect x="236.2" y="393.67" width="21" height="21" fill="#812b42"/><path d="M 236.2 393.67 A 21 21 0 0 0 257.2 414.67 L 257.2 393.67L236.2 393.67" fill="#5c3250"/><rect x="267.69" y="372.67" width="41.99" height="41.99" fill="#e01a1c"/><polygon points="267.69,372.67 309.68,372.67 309.68,414.66" fill="#409b42"/><rect x="5.248888888888889" y="425.15999999999997" width="41.99111111111111" height="41.99111111111111" fill="#293c65"/><rect x="5.25" y="425.16" width="21" height="21" fill="#2f3b63"/><path d="M 5.25 446.16 A 21 21 0 0 1 26.25 425.16 L 26.25 430.41 A 15.75 15.75 0 0 0 10.5 446.16" fill="#ae2330"/><rect x="26.24" y="425.16" width="21" height="21" fill="#2c4a60"/><path d="M 26.24 425.16 A 21 21 0 0 1 47.239999999999995 446.16 L 41.989999999999995 446.16 A 15.75 15.75 0 0 0 26.24 430.41" fill="#7a2d45"/><rect x="5.25" y="446.16" width="21" height="21" fill="#a12535"/><path d="M 5.25 446.16 A 21 21 0 0 0 26.25 467.16 L 26.25 461.91 A 15.75 15.75 0 0 1 10.5 446.16" fill="#3c8a48"/><rect x="26.24" y="446.16" width="21" height="21" fill="#46b23a"/><path d="M 26.24 467.16 A 21 21 0 0 0 47.239999999999995 446.16 L 41.989999999999995 446.16 A 15.75 15.75 0 0 1 26.24 461.91" fill="#42a240"/><rect x="57.74" y="425.16" width="41.99" height="41.99" fill="#30575b"/><rect x="57.74" y="425.16" width="41.99" height="41.99" fill="#ca1e25"/><rect x="110.22666666666666" y="425.15999999999997" width="41.99111111111111" height="41.99111111111111" fill="#293c65"/><rect x="110.23" y="425.16" width="21" height="21" fill="#38794f"/><polygon points="131.23000000000002,425.16 131.23000000000002,446.16 110.23,446.16" fill="#f11615"/><rect x="131.22" y="425.16" width="21" height="21" fill="#68304c"/><polygon points="131.22,425.16 152.22,446.16 131.22,446.16" fill="#293c65"/><rect x="110.23" y="446.16" width="21" height="21" fill="#a42534"/><polygon points="110.23,446.16 131.23000000000002,446.16 110.23,467.16" fill="#3c385e"/><rect x="131.22" y="446.16" width="21" height="21" fill="#2c4a60"/><polygon points="131.22,446.16 152.22,446.16 152.22,467.16" fill="#346955"/><rect x="162.72" y="425.16" width="41.99" height="41.99" fill="#722e48"/><polygon points="162.72,425.16 204.71,425.16 204.71,467.15000000000003" fill="#a72433"/><rect x="215.20444444444445" y="425.15999999999997" width="41.99111111111111" height="41.99111111111111" fill="#293c65"/><rect x="215.2" y="425.16" width="21" height="21" fill="#c71e26"/><polygon points="236.2,425.16 236.2,446.16 215.2,446.16" fill="#c61f26"/><rect x="236.2" y="425.16" width="21" height="21" fill="#3d385d"/><polygon points="236.2,425.16 257.2,425.16 236.2,446.16" fill="#387b4e"/><rect x="215.2" y="446.16" width="21" height="21" fill="#4dd02f"/><polygon points="215.2,446.16 236.2,446.16 236.2,467.16" fill="#543454"/><rect x="236.2" y="446.16" width="21" height="21" fill="#4ac533"/><polygon points="236.2,446.16 257.2,467.16 236.2,467.16" fill="#2f535d"/><rect x="267.69" y="425.16" width="41.99" height="41.99" fill="#45ad3c"/><path d="M 267.69 467.15000000000003 A 41.99 41.99 0 0 1  309.68 425.16 L 309.68 467.15000000000003L267.69 467.15000000000003" fill="#303b62"/></g></svg>